<svg width="20" height="19" viewBox="0 0 20 19" fill="none" xmlns="http://www.w3.org/2000/svg">
<path d="M9.72874 5.97499C7.11944 5.97499 4.99661 8.09782 4.99661 10.7071C4.99661 13.3164 7.11944 15.4392 9.72874 15.4392C12.338 15.4392 14.4609 13.3164 14.4609 10.7071C14.4609 8.09782 12.338 5.97499 9.72874 5.97499ZM9.72874 13.925C7.95442 13.925 6.51089 12.4814 6.51089 10.7071C6.51089 8.9328 7.95442 7.48927 9.72874 7.48927C11.5031 7.48927 12.9466 8.9328 12.9466 10.7071C12.9466 12.4814 11.5031 13.925 9.72874 13.925Z" fill="#606572"/>
<path d="M17.1486 3.70355H14.3633C14.2751 3.70355 14.1956 3.65543 14.1548 3.5776L13.3842 1.95834C13.3821 1.95391 13.3799 1.94952 13.3777 1.94513C13.0794 1.3485 12.4797 0.977844 11.8126 0.977844H7.69858C7.0315 0.977844 6.43177 1.3485 6.1335 1.94517C6.13126 1.94956 6.12914 1.95395 6.12702 1.95838L5.35641 3.57771C5.31552 3.65543 5.2361 3.70355 5.14793 3.70355H2.30865C1.05619 3.70355 0.0372314 4.72251 0.0372314 5.97497V16.1964C0.0372314 17.4488 1.05619 18.4678 2.30865 18.4678H17.1486C18.4011 18.4678 19.42 17.4488 19.42 16.1964V5.97497C19.42 4.72251 18.4011 3.70355 17.1486 3.70355ZM17.9057 16.1963C17.9057 16.6138 17.5661 16.9535 17.1486 16.9535H2.30865C1.89116 16.9535 1.55151 16.6138 1.55151 16.1963V5.97497C1.55151 5.55748 1.89116 5.21783 2.30865 5.21783H5.14793C5.81497 5.21783 6.4147 4.84721 6.71301 4.25058C6.71525 4.24619 6.71737 4.24176 6.71952 4.23733L7.49014 2.618C7.53099 2.54024 7.61041 2.49212 7.69858 2.49212H11.8126C11.9008 2.49212 11.9802 2.54024 12.0211 2.61796L12.7917 4.2373C12.7938 4.24172 12.796 4.24615 12.7982 4.25055C13.0965 4.84717 13.6962 5.21779 14.3633 5.21779H17.1486C17.5661 5.21779 17.9057 5.55744 17.9057 5.97493V16.1963Z" fill="#606572"/>
<path d="M16.3917 6.7321H14.8774V8.24638H16.3917V6.7321Z" fill="#606572"/>
</svg>
