<svg width="190" height="253" viewBox="0 0 190 253" fill="none" xmlns="http://www.w3.org/2000/svg">
<g clip-path="url(#clippog)">
<rect width="190" height="253" rx="14" fill="url(#paintLinear3)"/>
<rect x="1.44556" y="1.5" width="187.109" height="250" rx="14" fill="url(#paintLinear4)"/>
<path fill-rule="evenodd" clip-rule="evenodd" d="M35.5754 80.176L35.5754 80.176L30.7477 75.3598L25.9199 80.176L25.9199 80.176L35.5754 80.176Z" fill="#A9A9A9"/>
<path fill-rule="evenodd" clip-rule="evenodd" d="M30.7477 62.5889C27.7986 59.6399 23.0171 59.6399 20.068 62.589C17.1189 65.5381 17.1189 70.3196 20.068 73.2687C23.0171 76.2178 27.7986 76.2178 30.7477 73.2687C33.6968 76.2178 38.4783 76.2178 41.4274 73.2687C44.3765 70.3196 44.3765 65.5381 41.4274 62.589C38.4783 59.6399 33.6968 59.6399 30.7477 62.5889Z" fill="#A9A9A9"/>
<rect x="41.4274" y="62.589" width="15.1034" height="15.1034" transform="rotate(135 41.4274 62.589)" fill="#E9E9E9"/>
<path d="M27.8077 43.1311C26.2077 43.1311 24.7277 42.7845 23.3677 42.0911C22.0077 41.3978 20.901 40.4111 20.0477 39.1311L21.8077 37.1311C23.3543 39.4245 25.3677 40.5711 27.8477 40.5711C31.3143 40.5711 33.0477 38.5178 33.0477 34.4111V17.4511H22.8077V14.8911H35.9677V34.2911C35.9677 37.2245 35.2743 39.4378 33.8877 40.9311C32.5277 42.3978 30.501 43.1311 27.8077 43.1311Z" fill="#E9E9E9"/>
</g>
<defs>
<linearGradient id="paintLinear3" x1="190" y1="-8.44713e-06" x2="0.828506" y2="253.618" gradientUnits="userSpaceOnUse">
<stop stop-color="#464c5d"/>
<stop offset="0.208333" stop-color="#23262f"/>
<stop offset="1" stop-color="#323040"/>
</linearGradient>
<linearGradient id="paintLinear4" x1="188.554" y1="1.49999" x2="1.44556" y2="251.5" gradientUnits="userSpaceOnUse">
<stop stop-color="#24232f"/>
<stop offset="1" stop-color="#060709"/>
</linearGradient>
<clipPath id="clippog">
<rect width="190" height="253" fill="white"/>
</clipPath>
</defs>
</svg>
