<svg width="260" height="182" viewBox="0 0 260 182" fill="none" xmlns="http://www.w3.org/2000/svg">
<path fill-rule="evenodd" clip-rule="evenodd" d="M259.206 0C231.957 56.709 186.887 68.5158 135.144 82.0703C126.485 84.3388 117.638 86.6562 108.657 89.2413C53.3947 105.148 11.9295 127.996 0 181.313V0H259.206Z" fill="#D1FFF4"/>
<circle r="4.13695" transform="matrix(-0.156709 -0.987645 -0.987645 0.156709 114.684 34.4223)" stroke="#5BD8DC" stroke-width="3"/>
<circle r="4.13695" transform="matrix(-0.156709 -0.987645 -0.987645 0.156709 19.5781 75.3109)" stroke="#5BD8DC" stroke-width="3"/>
<circle r="4.13695" transform="matrix(-0.156709 -0.987645 -0.987645 0.156709 205.561 21.5209)" stroke="#5BD8DC" stroke-width="3"/>
<path d="M67.1863 66.4317L59.8934 72.7689L69.028 75.9161L67.1863 66.4317Z" stroke="#5BD8DC" stroke-width="3"/>
<path d="M153.893 8.37598L157.495 17.341L163.458 9.73896L153.893 8.37598Z" stroke="#5BD8DC" stroke-width="3"/>
<rect x="1.00065" y="1.87048" width="8.44147" height="8.44147" transform="matrix(-0.289941 0.957044 0.957044 0.289941 27.08 22.9752)" stroke="#5BD8DC" stroke-width="3"/>
<rect x="1.85854" y="1.02267" width="8.44147" height="8.44147" transform="matrix(0.278623 0.960401 0.960401 -0.278623 2.58147 123.071)" stroke="#5BD8DC" stroke-width="3"/>
<rect x="2.01584" y="0.660609" width="8.44147" height="8.44147" transform="matrix(0.451743 0.892148 0.892148 -0.451743 130.461 65.4243)" stroke="#5BD8DC" stroke-width="3"/>
<path d="M192.2 40.7637L184.781 87.9758C184.586 89.2171 183.308 89.9731 182.126 89.5466L156.74 80.3847L184.405 45.8653L149.158 77.7231L132.534 71.6798C130.894 71.0838 130.75 68.8205 132.302 68.022L189.309 38.675C190.764 37.9258 192.454 39.1467 192.2 40.7637Z" fill="#FF95B5"/>
<path d="M154.905 89.9608L154.722 82.403L164.673 86.1579L158.169 91.4624C156.88 92.5136 154.945 91.6236 154.905 89.9608Z" fill="#FF95B5"/>
<path d="M138.648 94.6204C112.237 116.774 77.7635 126.807 42.6139 120.965C40.8482 120.671 39.147 121.813 38.8035 123.57C38.4597 125.328 39.609 127.038 41.3749 127.339C81.7528 134.24 117.626 120.796 142.947 99.4745C144.321 98.3171 144.437 96.2554 143.238 94.9171C142.049 93.5899 140.014 93.4752 138.648 94.6204Z" fill="#9EE8FF"/>
<circle cx="34.2563" cy="85.9768" r="20.0928" transform="rotate(-13.884 34.2563 85.9768)" fill="#1CE5C1"/>
<path fill-rule="evenodd" clip-rule="evenodd" d="M44.2507 80.9258L42.1294 78.8044L32.0264 88.9075L26.3833 83.2644L24.262 85.3857L31.99 93.1138L31.9903 93.1135L32.0266 93.1499L44.2507 80.9258Z" fill="white"/>
<path d="M62.2768 19.4631C62.2768 17.254 64.0677 15.4631 66.2768 15.4631H108.691C110.901 15.4631 112.691 17.254 112.691 19.4631V42.068C112.691 44.2772 110.901 46.068 108.691 46.068H80.0131H69.8634H66.2768C64.0677 46.068 62.2768 44.2772 62.2768 42.068V19.4631Z" fill="#968EED"/>
<path d="M69.8634 45.5504V51.3415C69.8634 53.0987 71.9669 54.0017 73.2409 52.7915L80.8634 45.5504H69.8634Z" fill="#968EED"/>
<path fill-rule="evenodd" clip-rule="evenodd" d="M76.9077 30.7655C76.9077 32.7127 75.3293 34.2911 73.3822 34.2911C71.435 34.2911 69.8566 32.7127 69.8566 30.7655C69.8566 28.8184 71.435 27.24 73.3822 27.24C75.3293 27.24 76.9077 28.8184 76.9077 30.7655ZM91.0099 30.7655C91.0099 32.7127 89.4315 34.2911 87.4844 34.2911C85.5373 34.2911 83.9588 32.7127 83.9588 30.7655C83.9588 28.8184 85.5373 27.24 87.4844 27.24C89.4315 27.24 91.0099 28.8184 91.0099 30.7655ZM101.586 34.2911C103.534 34.2911 105.112 32.7127 105.112 30.7655C105.112 28.8184 103.534 27.24 101.586 27.24C99.6394 27.24 98.0609 28.8184 98.0609 30.7655C98.0609 32.7127 99.6394 34.2911 101.586 34.2911Z" fill="white"/>
</svg>
