<svg width="156" height="65" viewBox="0 0 156 65" fill="none" xmlns="http://www.w3.org/2000/svg">
<rect x="45.5" y="10.5" width="65" height="47" rx="5.5" stroke="#80ABC3" stroke-width="3"/>
<path d="M86.163 44.7591C80.0446 52.0845 70.87 48.2638 69.9731 39.9695C75.8643 45.3791 76.2993 36.4471 81.2574 35.9109C85.4046 35.4625 89.411 40.4363 86.163 44.7591Z" fill="#80ABC3"/>
<rect x="44" y="62" width="68" height="3" rx="1.5" fill="#80ABC3"/>
<path d="M90.3274 35.5109L101.661 12.7339C102.968 10.1077 101.797 6.923 99.0995 5.76983C96.423 4.62554 93.3332 5.94877 92.3145 8.6755L83.4111 32.5079C82.6875 34.4448 83.6567 36.6034 85.585 37.3497C87.4034 38.0535 89.4587 37.2566 90.3274 35.5109Z" fill="#80ABC3" stroke="white" stroke-width="2"/>
<path d="M0.0473444 17.7619C1.23786 4.13351 14.4378 -1.34172 23.4966 1.85924C33.5457 -1.53609 46.9979 5.15354 46.9979 19.4939C46.9979 20.9814 48.2195 21.9961 49.5 21.9961H53.0078C57.4222 21.9961 60.999 25.5793 60.999 29.9948C60.999 34.4104 57.3706 37.9936 53.0078 37.9936H50.4623C49.4913 37.9936 48.0039 38.785 48.0039 40.4945C48.0039 42.204 49.4534 42.9954 50.4623 42.9954H68.0055C71.9371 42.9954 71.9371 48.9891 68.0055 48.9891H31.0196C24.4305 48.9891 19.5562 43.5858 20.0592 36.8863C7.7061 38.27 -0.681602 27.7498 0.0473444 17.7619Z" fill="url(#paintt)"/>
<defs>
<linearGradient id="paintt" x1="30.641" y1="4.63095" x2="70.9542" y2="48.9891" gradientUnits="userSpaceOnUse">
<stop stop-color="#40FF98" stop-opacity="0"/>
<stop offset="0.588542" stop-color="#3EF8D5" stop-opacity="0.74"/>
<stop offset="1" stop-color="#3EF3FF"/>
</linearGradient>
</defs>
</svg>
