<svg width="69" height="56" viewBox="0 0 69 56" fill="none" xmlns="http://www.w3.org/2000/svg">
<path fill-rule="evenodd" clip-rule="evenodd" d="M61.6026 3H32.577L26.2436 9.33333H3.39746V49C3.39746 51.2091 5.18832 53 7.39746 53H61.6026C63.8117 53 65.6026 51.2091 65.6026 49V7C65.6026 4.79086 63.8117 3 61.6026 3ZM61.6026 0H35.577H26.2436H7.39746C3.53147 0 0.397461 3.13401 0.397461 7V9.33333V49C0.397461 52.866 3.53147 56 7.39746 56H61.6026C65.4686 56 68.6026 52.866 68.6026 49V7C68.6026 3.13401 65.4686 0 61.6026 0ZM14.0385 6.46154C14.8315 6.46154 15.4744 5.81867 15.4744 5.02564C15.4744 4.23262 14.8315 3.58974 14.0385 3.58974C13.2455 3.58974 12.6026 4.23262 12.6026 5.02564C12.6026 5.81867 13.2455 6.46154 14.0385 6.46154ZM8.2949 6.46155C9.08793 6.46155 9.7308 5.81867 9.7308 5.02565C9.7308 4.23263 9.08793 3.58975 8.2949 3.58975C7.50188 3.58975 6.859 4.23263 6.859 5.02565C6.859 5.81867 7.50188 6.46155 8.2949 6.46155ZM21.218 5.02564C21.218 5.81867 20.5751 6.46154 19.7821 6.46154C18.9891 6.46154 18.3462 5.81867 18.3462 5.02564C18.3462 4.23262 18.9891 3.58974 19.7821 3.58974C20.5751 3.58974 21.218 4.23262 21.218 5.02564ZM25.1917 22.7179C25.8785 22.3214 26.7567 22.5567 27.1532 23.2435C27.5497 23.9303 27.3144 24.8085 26.6276 25.205L18.6292 29.8229L26.6636 34.4615C27.3504 34.858 27.5857 35.7362 27.1892 36.423C26.7927 37.1098 25.9145 37.3451 25.2277 36.9486L15.2795 31.205C14.8416 30.9521 14.5872 30.5034 14.5632 30.0333C14.422 29.4327 14.6817 28.7859 15.2435 28.4615L25.1917 22.7179ZM42.2286 23.2435C42.6251 22.5567 43.5033 22.3214 44.1901 22.7179L54.1383 28.4615C54.7002 28.7859 54.9598 29.4327 54.8186 30.0333C54.7946 30.5034 54.5402 30.9521 54.1023 31.205L44.1541 36.9486C43.4673 37.3451 42.5891 37.1098 42.1926 36.423C41.7961 35.7362 42.0314 34.858 42.7182 34.4615L50.7526 29.8229L42.7542 25.205C42.0674 24.8085 41.8321 23.9303 42.2286 23.2435ZM38.6339 16.3716C37.8679 16.1664 37.0805 16.621 36.8753 17.387L30.3716 41.659C30.1664 42.425 30.621 43.2123 31.387 43.4176C32.153 43.6228 32.9403 43.1682 33.1456 42.4022L39.6492 18.1302C39.8545 17.3642 39.3999 16.5769 38.6339 16.3716Z" fill="#80ABC3"/>
</svg>
