<svg width="67" height="89" viewBox="0 0 67 89" fill="none" xmlns="http://www.w3.org/2000/svg">
<path fill-rule="evenodd" clip-rule="evenodd" d="M0.737793 27.5594C0.737793 12.6546 12.7439 0.57019 27.5471 0.57019C39.2607 0.57019 49.2207 8.13448 52.8697 18.6752L44.64 26.9049C44.6476 26.6586 44.6514 26.4075 44.6514 26.1515C44.6514 23.2051 43.6125 20.7963 41.8923 18.9071C42.1693 18.2279 43.0875 15.4817 41.6286 11.764C41.6286 11.764 39.3811 11.0398 34.2628 14.5304C32.1203 13.9321 29.8259 13.633 27.5471 13.6217C25.2683 13.633 22.9761 13.9321 20.838 14.5304C15.7152 11.0398 13.4633 11.764 13.4633 11.764C12.0066 15.4795 12.9248 18.2256 13.2019 18.9071C11.4883 20.7964 10.4405 23.2029 10.4405 26.1515C10.4405 36.4906 16.7005 38.8049 22.6544 39.4909C21.8858 40.1634 21.191 41.3554 20.952 43.0984C19.4216 43.7889 15.541 44.9809 13.1505 40.8561C13.1505 40.8561 11.7341 38.2629 9.04197 38.0739C9.04197 38.0739 6.42359 38.038 8.85653 39.7135C8.85653 39.7135 10.6148 40.5434 11.8346 43.663C11.8346 43.663 13.3873 48.4805 20.8447 46.8477V50.7001L18.5546 52.9902C8.17037 49.2704 0.737793 39.2898 0.737793 27.5594Z" fill="black"/>
<path d="M65.388 58.2936L41.1113 34.0178C39.7141 32.6197 37.4465 32.6197 36.0476 34.0178L31.0064 39.0591L37.4014 45.4541C38.8874 44.952 40.5916 45.2889 41.7762 46.4735C42.9664 47.6657 43.3009 49.3844 42.7866 50.8753L48.9496 57.0386C50.4406 56.5249 52.1611 56.8572 53.352 58.0501C55.0163 59.7139 55.0163 62.4104 53.352 64.0753C51.6871 65.7403 48.9906 65.7403 47.3249 64.0753C46.073 62.822 45.7637 60.9834 46.3975 59.4411L40.65 53.6935L40.6493 68.8187C41.066 69.0248 41.4465 69.2969 41.7762 69.6246C43.4406 71.2883 43.4406 73.9851 41.7762 75.6513C40.1114 77.3155 37.4135 77.3155 35.7511 75.6513C34.0867 73.9851 34.0867 71.2885 35.7511 69.6248C36.15 69.2257 36.624 68.9097 37.1457 68.6949L37.1457 53.4287C36.6232 53.2154 36.1489 52.8992 35.7511 52.4989C34.49 51.2395 34.1868 49.3892 34.833 47.8408L28.529 41.536L11.883 58.1813C10.4842 59.5807 10.4842 61.8485 11.883 63.2469L36.1601 87.5231C37.5578 88.9214 39.8249 88.9214 41.2243 87.5231L65.3878 63.3596C66.7861 61.9608 66.7863 59.6917 65.388 58.2936Z" fill="#DE4C36"/>
<path d="M55.1851 14.6652V14.6652C56.7472 16.2273 56.7472 18.7599 55.1851 20.322L3.56626 71.9408V71.9408C2.00417 70.3787 2.00417 67.8461 3.56626 66.284L55.1851 14.6652Z" fill="#00BBC1"/>
</svg>
