<svg width="36" height="36" viewBox="0 0 36 36" fill="none" xmlns="http://www.w3.org/2000/svg">
<path fill-rule="evenodd" clip-rule="evenodd" d="M7 0C3.134 0 0 3.13403 0 7V29C0 32.866 3.134 36 7 36H29C32.866 36 36 32.866 36 29V7C36 3.13403 32.866 0 29 0H7ZM6 18C6 11.373 11.374 6 18 6C24.627 6 30 11.373 30 18C30 23.3 26.566 27.7971 21.801 29.386C21.192 29.5039 21 29.1289 21 28.8101V25.5171C21 24.397 20.607 23.667 20.177 23.2949C22.849 22.998 25.656 21.9829 25.656 17.374C25.656 16.064 25.191 14.9929 24.421 14.1531C24.545 13.8511 24.956 12.6299 24.303 10.9771C24.303 10.9771 23.297 10.655 21.006 12.207C20.047 11.9409 19.02 11.8081 18 11.803C16.98 11.8081 15.954 11.9409 14.997 12.207C12.704 10.655 11.696 10.9771 11.696 10.9771C11.044 12.6289 11.455 13.8501 11.579 14.1531C10.812 14.9929 10.343 16.063 10.343 17.374C10.343 21.9709 13.145 23 15.81 23.3049C15.466 23.604 15.155 24.134 15.048 24.9089C14.363 25.2161 12.626 25.7461 11.556 23.9121C11.556 23.9121 10.922 22.759 9.717 22.675C9.717 22.675 8.545 22.6589 9.634 23.4041C9.634 23.4041 10.421 23.7729 10.967 25.1599C10.967 25.1599 11.662 27.302 15 26.5759V28.8101C15 29.126 14.806 29.498 14.207 29.387C9.438 27.8 6 23.302 6 18Z" fill="#7A889E"/>
</svg>
