<svg width="1436" height="1173" viewBox="0 0 1436 1173" fill="none" xmlns="http://www.w3.org/2000/svg">
<path d="M124.398 406.253C142.975 490.698 200.738 549.76 387.133 508.754L388.689 508.412C515.391 480.536 725.787 434.247 745.052 581.515C760.517 699.729 527.639 690.079 439.367 778.351C351.095 866.623 387.133 1005.6 505.852 1048.41C635.034 1094.98 768.621 1022.94 914.636 958.476C1196.56 834.009 1360.61 647.866 1323.43 440.447C1295.82 286.367 1181.23 173.595 1000.93 130.398C772.592 75.693 319.86 202.952 319.86 202.952C168.917 237.451 101.791 303.492 124.398 406.253Z" fill="url(#paint0_linear)"/>
<circle cx="554.738" cy="1027.57" r="3.27284" stroke="#00BBC1"/>
<circle cx="587.861" cy="1122.43" r="3.27284" stroke="#00BBC1"/>
<circle r="3.27284" transform="matrix(0.88181 -0.471604 -0.471604 -0.88181 205.589 255.751)" stroke="#00BBC1"/>
<circle r="3.27284" transform="matrix(0.88181 -0.471604 -0.471604 -0.88181 616.254 433.515)" stroke="#00BBC1"/>
<circle r="3.27284" transform="matrix(0.88181 -0.471604 -0.471604 -0.88181 1028.42 293.218)" stroke="#00BBC1"/>
<circle cx="920.435" cy="741.597" r="3.27284" transform="rotate(-171.172 920.435 741.597)" stroke="#00BBC1"/>
<circle cx="503.823" cy="1089.28" r="3.27284" transform="rotate(-171.172 503.823 1089.28)" stroke="#00BBC1"/>
<circle r="3.27284" transform="matrix(-0.798991 0.601342 0.601342 0.798991 662.928 335.457)" stroke="#00BBC1"/>
<circle r="3.27284" transform="matrix(-0.798991 0.601342 0.601342 0.798991 1075.09 195.16)" stroke="#00BBC1"/>
<circle r="3.27284" transform="matrix(-0.798991 0.601342 0.601342 0.798991 1070.09 498.002)" stroke="#00BBC1"/>
<circle r="3.27284" transform="matrix(-0.798991 0.601342 0.601342 0.798991 1167.78 771.969)" stroke="#00BBC1"/>
<circle r="3.27284" transform="matrix(-0.798991 0.601342 0.601342 0.798991 519.715 659.331)" stroke="#00BBC1"/>
<circle cx="829.957" cy="922.442" r="3.27284" transform="rotate(-117.95 829.957 922.442)" stroke="#00BBC1"/>
<circle r="3.27284" transform="matrix(0.00328563 0.999995 0.999995 -0.00328563 497.857 218.656)" stroke="#00BBC1"/>
<circle r="3.27284" transform="matrix(0.00328563 0.999995 0.999995 -0.00328563 738.678 223.634)" stroke="#00BBC1"/>
<circle r="3.27284" transform="matrix(0.00328563 0.999995 0.999995 -0.00328563 905.019 381.201)" stroke="#00BBC1"/>
<circle r="3.27284" transform="matrix(-0.572626 0.819817 0.819817 0.572626 1235.93 418.555)" stroke="#00BBC1"/>
<circle r="3.27284" transform="matrix(0.00328563 0.999995 0.999995 -0.00328563 1176.85 582.346)" stroke="#00BBC1"/>
<circle cx="425.84" cy="823.301" r="3.27284" transform="rotate(-117.95 425.84 823.301)" stroke="#00BBC1"/>
<circle r="3.27284" transform="matrix(0.00328563 0.999995 0.999995 -0.00328563 159.998 506.612)" stroke="#00BBC1"/>
<circle r="3.27284" transform="matrix(0.00328563 0.999995 0.999995 -0.00328563 1034.53 777.252)" stroke="#00BBC1"/>
<circle cx="632.343" cy="803.24" r="3.27284" transform="rotate(70.8774 632.343 803.24)" stroke="#00BBC1"/>
<circle r="3.27284" transform="matrix(-0.156709 -0.987645 -0.987645 0.156709 379.815 416.964)" stroke="#00BBC1"/>
<circle r="3.27284" transform="matrix(-0.156709 -0.987645 -0.987645 0.156709 791.981 276.667)" stroke="#00BBC1"/>
<circle r="3.27284" transform="matrix(-0.156709 -0.987645 -0.987645 0.156709 786.977 579.509)" stroke="#00BBC1"/>
<circle cx="709.124" cy="975.785" r="3.27284" transform="rotate(-87.8978 709.124 975.785)" stroke="#00BBC1"/>
<circle r="3.27284" transform="matrix(0.503634 0.863917 0.863917 -0.503634 366.148 228.603)" stroke="#00BBC1"/>
<circle r="3.27284" transform="matrix(0.503634 0.863917 0.863917 -0.503634 773.31 391.148)" stroke="#00BBC1"/>
<circle r="3.27284" transform="matrix(0.503634 0.863917 0.863917 -0.503634 1209.68 252.79)" stroke="#00BBC1"/>
<circle r="3.27284" transform="matrix(0.503634 0.863917 0.863917 -0.503634 1049.27 568.609)" stroke="#00BBC1"/>
<circle cx="806.929" cy="988.668" r="3.27284" transform="rotate(-87.8978 806.929 988.668)" stroke="#00BBC1"/>
<circle r="3.27284" transform="matrix(0.503634 0.863917 0.863917 -0.503634 446.318 171.117)" stroke="#00BBC1"/>
<circle r="3.27284" transform="matrix(0.503634 0.863917 0.863917 -0.503634 784.684 124.073)" stroke="#00BBC1"/>
<circle r="3.27284" transform="matrix(0.503634 0.863917 0.863917 -0.503634 851.528 316.647)" stroke="#00BBC1"/>
<circle r="3.27284" transform="matrix(-0.085088 0.996374 0.996374 0.085088 1221.13 350.021)" stroke="#00BBC1"/>
<circle r="3.27284" transform="matrix(0.503634 0.863917 0.863917 -0.503634 1145.12 501.276)" stroke="#00BBC1"/>
<circle cx="759.932" cy="769.072" r="3.27284" transform="rotate(100.93 759.932 769.072)" stroke="#00BBC1"/>
<circle r="3.27284" transform="matrix(-0.630247 -0.776395 -0.776395 0.630247 488.978 398.232)" stroke="#00BBC1"/>
<circle r="3.27284" transform="matrix(-0.630247 -0.776395 -0.776395 0.630247 901.145 257.934)" stroke="#00BBC1"/>
<circle r="3.27284" transform="matrix(-0.630247 -0.776395 -0.776395 0.630247 896.141 560.776)" stroke="#00BBC1"/>
<circle cx="578.727" cy="984.396" r="3.27284" transform="rotate(154.152 578.727 984.396)" stroke="#00BBC1"/>
<circle r="3.27284" transform="matrix(-0.999201 0.039966 0.039966 0.999201 247.101 282.505)" stroke="#00BBC1"/>
<circle r="3.27284" transform="matrix(-0.999201 0.039966 0.039966 0.999201 654.264 445.05)" stroke="#00BBC1"/>
<circle cx="890.105" cy="780.574" r="3.27284" transform="rotate(-17.0203 890.105 780.574)" stroke="#00BBC1"/>
<circle cx="891.933" cy="1025.06" r="3.27284" transform="rotate(-17.0203 891.933 1025.06)" stroke="#00BBC1"/>
<circle r="3.27284" transform="matrix(0.981232 -0.192833 -0.192833 -0.981232 617.801 315.391)" stroke="#00BBC1"/>
<circle r="3.27284" transform="matrix(0.981232 -0.192833 -0.192833 -0.981232 1029.97 175.093)" stroke="#00BBC1"/>
<circle r="3.27284" transform="matrix(0.981232 -0.192833 -0.192833 -0.981232 1024.96 477.935)" stroke="#00BBC1"/>
<circle r="3.27284" transform="matrix(0.981232 -0.192833 -0.192833 -0.981232 1150.27 454.696)" stroke="#00BBC1"/>
<circle r="3.27284" transform="matrix(0.981232 -0.192833 -0.192833 -0.981232 1328.49 379.697)" stroke="#00BBC1"/>
<circle cx="496.528" cy="907.869" r="3.27284" transform="rotate(68.6043 496.528 907.869)" stroke="#00BBC1"/>
<circle r="3.27284" transform="matrix(-0.117412 -0.993083 -0.993083 0.117412 210.708 388.753)" stroke="#00BBC1"/>
<circle r="3.27284" transform="matrix(-0.117412 -0.993083 -0.993083 0.117412 991.801 605.794)" stroke="#00BBC1"/>
<circle cx="959.587" cy="868.809" r="3.27284" transform="rotate(-102.568 959.587 868.809)" stroke="#00BBC1"/>
<circle r="3.27284" transform="matrix(0.268422 0.963301 0.963301 -0.268422 637.459 204.816)" stroke="#00BBC1"/>
<circle r="3.27284" transform="matrix(0.268422 0.963301 0.963301 -0.268422 1178.71 278.363)" stroke="#00BBC1"/>
<circle r="3.27284" transform="matrix(0.268422 0.963301 0.963301 -0.268422 1044.62 367.361)" stroke="#00BBC1"/>
<circle r="3.27284" transform="matrix(-0.334652 0.942342 0.942342 0.334652 1318.12 422.1)" stroke="#00BBC1"/>
<circle r="3.27284" transform="matrix(0.268422 0.963301 0.963301 -0.268422 1316.45 568.505)" stroke="#00BBC1"/>
<circle cx="549.948" cy="758.491" r="3.27284" transform="rotate(-102.568 549.948 758.491)" stroke="#00BBC1"/>
<circle r="3.27284" transform="matrix(0.268422 0.963301 0.963301 -0.268422 328.262 495.283)" stroke="#00BBC1"/>
<circle r="3.27284" transform="matrix(0.268422 0.963301 0.963301 -0.268422 735.424 657.828)" stroke="#00BBC1"/>
<circle cx="622.444" cy="977.747" r="3.27284" transform="rotate(-59.8993 622.444 977.747)" stroke="#00BBC1"/>
<circle r="3.27284" transform="matrix(0.850253 0.526374 0.526374 -0.850253 288.788 267.752)" stroke="#00BBC1"/>
<circle r="3.27284" transform="matrix(0.850253 0.526374 0.526374 -0.850253 695.95 430.296)" stroke="#00BBC1"/>
<circle r="3.27284" transform="matrix(0.850253 0.526374 0.526374 -0.850253 1108.12 289.999)" stroke="#00BBC1"/>
<circle cx="845.885" cy="780.436" r="3.27284" transform="rotate(128.928 845.885 780.436)" stroke="#00BBC1"/>
<circle r="3.27284" transform="matrix(-0.92096 -0.389657 -0.389657 0.92096 578.873 336.367)" stroke="#00BBC1"/>
<circle r="3.27284" transform="matrix(-0.92096 -0.389657 -0.389657 0.92096 991.039 196.069)" stroke="#00BBC1"/>
<circle r="3.27284" transform="matrix(-0.92096 -0.389657 -0.389657 0.92096 986.035 498.911)" stroke="#00BBC1"/>
<circle r="3.27284" transform="matrix(-0.92096 -0.389657 -0.389657 0.92096 1257.86 700.056)" stroke="#00BBC1"/>
<circle r="3.27284" transform="matrix(-0.92096 -0.389657 -0.389657 0.92096 602.733 564.124)" stroke="#00BBC1"/>
<circle cx="754.215" cy="885.984" r="3.27284" transform="rotate(-177.849 754.215 885.984)" stroke="#00BBC1"/>
<circle cx="704.411" cy="1168.52" r="3.27284" transform="rotate(-177.849 704.411 1168.52)" stroke="#00BBC1"/>
<circle r="3.27284" transform="matrix(-0.863493 0.504362 0.504362 0.863493 448.26 286.526)" stroke="#00BBC1"/>
<circle r="3.27284" transform="matrix(-0.863493 0.504362 0.504362 0.863493 860.426 146.228)" stroke="#00BBC1"/>
<circle r="3.27284" transform="matrix(-0.863493 0.504362 0.504362 0.863493 855.422 449.071)" stroke="#00BBC1"/>
<circle r="3.27284" transform="matrix(-0.863493 0.504362 0.504362 0.863493 1127.25 650.215)" stroke="#00BBC1"/>
<circle r="3.27284" transform="matrix(-0.863493 0.504362 0.504362 0.863493 69.7563 535.35)" stroke="#00BBC1"/>
<circle cx="701.594" cy="850.89" r="3.27284" transform="rotate(10.9782 701.594 850.89)" stroke="#00BBC1"/>
<circle r="3.27284" transform="matrix(0.775863 -0.630901 -0.630901 -0.775863 418.408 342.288)" stroke="#00BBC1"/>
<circle r="3.27284" transform="matrix(0.775863 -0.630901 -0.630901 -0.775863 830.575 201.99)" stroke="#00BBC1"/>
<circle r="3.27284" transform="matrix(0.775863 -0.630901 -0.630901 -0.775863 825.571 504.833)" stroke="#00BBC1"/>
<circle r="3.27284" transform="matrix(0.775863 -0.630901 -0.630901 -0.775863 1097.4 705.977)" stroke="#00BBC1"/>
<circle cx="507.157" cy="1027.3" r="3.27284" transform="rotate(94.2528 507.157 1027.3)" stroke="#00BBC1"/>
<circle r="3.27284" transform="matrix(-0.535697 -0.84441 -0.84441 0.535697 163.758 278.428)" stroke="#00BBC1"/>
<circle r="3.27284" transform="matrix(-0.535697 -0.84441 -0.84441 0.535697 586.427 413.707)" stroke="#00BBC1"/>
<circle r="3.27284" transform="matrix(-0.535697 -0.84441 -0.84441 0.535697 998.594 273.41)" stroke="#00BBC1"/>
<circle cx="967.411" cy="749.165" r="3.27284" transform="rotate(-76.9196 967.411 749.165)" stroke="#00BBC1"/>
<circle r="3.27284" transform="matrix(0.658937 0.752198 0.752198 -0.658937 700.783 306.629)" stroke="#00BBC1"/>
<circle r="3.27284" transform="matrix(0.658937 0.752198 0.752198 -0.658937 986.923 311.601)" stroke="#00BBC1"/>
<circle r="3.27284" transform="matrix(0.658937 0.752198 0.752198 -0.658937 1107.95 469.174)" stroke="#00BBC1"/>
<circle r="3.27284" transform="matrix(0.658937 0.752198 0.752198 -0.658937 1002.13 696.853)" stroke="#00BBC1"/>
<circle r="3.27284" transform="matrix(0.658937 0.752198 0.752198 -0.658937 493.163 716.431)" stroke="#00BBC1"/>
<circle cx="656.396" cy="690.212" r="3.27284" transform="rotate(-76.9196 656.396 690.212)" stroke="#00BBC1"/>
<circle r="3.27284" transform="matrix(0.658937 0.752198 0.752198 -0.658937 500.26 515.464)" stroke="#00BBC1"/>
<circle r="3.27284" transform="matrix(0.658937 0.752198 0.752198 -0.658937 861.492 667.835)" stroke="#00BBC1"/>
<circle cx="487.338" cy="985.513" r="3.27284" transform="rotate(8.705 487.338 985.513)" stroke="#00BBC1"/>
<circle r="3.27284" transform="matrix(0.800277 -0.599631 -0.599631 -0.800277 165.987 324.62)" stroke="#00BBC1"/>
<circle r="3.27284" transform="matrix(0.800277 -0.599631 -0.599631 -0.800277 928.331 658.585)" stroke="#00BBC1"/>
<circle cx="980.583" cy="793.496" r="3.27284" transform="rotate(-162.467 980.583 793.496)" stroke="#00BBC1"/>
<circle cx="418.278" cy="686.658" r="3.27284" transform="rotate(-162.467 418.278 686.658)" stroke="#00BBC1"/>
<circle cx="233.358" cy="620.596" r="3.27284" transform="rotate(-162.467 233.358 620.596)" stroke="#00BBC1"/>
<circle r="3.27284" transform="matrix(-0.698776 0.715341 0.715341 0.698776 691.492 261.326)" stroke="#00BBC1"/>
<circle r="3.27284" transform="matrix(-0.698776 0.715341 0.715341 0.698776 1098.65 423.871)" stroke="#00BBC1"/>
<circle r="3.27284" transform="matrix(-0.983098 0.183082 0.183082 0.983098 1272.76 409.308)" stroke="#00BBC1"/>
<circle r="3.27284" transform="matrix(-0.698776 0.715341 0.715341 0.698776 1104.38 506.612)" stroke="#00BBC1"/>
<circle cx="763.06" cy="933.403" r="3.27284" transform="rotate(-139.659 763.06 933.403)" stroke="#00BBC1"/>
<circle cx="1079.81" cy="1038.16" r="3.27284" transform="rotate(-139.659 1079.81 1038.16)" stroke="#00BBC1"/>
<circle r="3.27284" transform="matrix(-0.366841 0.930284 0.930284 0.366841 433.697 240.539)" stroke="#00BBC1"/>
<circle r="3.27284" transform="matrix(-0.366841 0.930284 0.930284 0.366841 835.772 165.77)" stroke="#00BBC1"/>
<circle r="3.27284" transform="matrix(-0.366841 0.930284 0.930284 0.366841 840.86 403.084)" stroke="#00BBC1"/>
<circle r="3.27284" transform="matrix(-0.835258 0.549858 0.549858 0.835258 1170.87 399.542)" stroke="#00BBC1"/>
<circle r="3.27284" transform="matrix(-0.366841 0.930284 0.930284 0.366841 1112.69 604.229)" stroke="#00BBC1"/>
<circle cx="700.13" cy="802.675" r="3.27284" transform="rotate(49.1683 700.13 802.675)" stroke="#00BBC1"/>
<circle r="3.27284" transform="matrix(0.219732 -0.97556 -0.97556 -0.219732 439.856 385.495)" stroke="#00BBC1"/>
<circle r="3.27284" transform="matrix(0.219732 -0.97556 -0.97556 -0.219732 852.022 245.197)" stroke="#00BBC1"/>
<circle r="3.27284" transform="matrix(0.219732 -0.97556 -0.97556 -0.219732 847.018 548.04)" stroke="#00BBC1"/>
<circle r="3.27284" transform="matrix(0.219732 -0.97556 -0.97556 -0.219732 1118.85 749.184)" stroke="#00BBC1"/>
<circle r="3.27284" transform="matrix(0.219732 -0.97556 -0.97556 -0.219732 675.068 572.789)" stroke="#00BBC1"/>
<circle cx="482.015" cy="855.95" r="3.27284" transform="rotate(-41.0027 482.015 855.95)" stroke="#00BBC1"/>
<circle r="3.27284" transform="matrix(0.974901 0.222641 0.222641 -0.974901 222.396 441.38)" stroke="#00BBC1"/>
<circle r="3.27284" transform="matrix(0.974901 0.222641 0.222641 -0.974901 970.478 684.642)" stroke="#00BBC1"/>
<circle r="3.27284" transform="matrix(0.974901 0.222641 0.222641 -0.974901 367.422 1046.31)" stroke="#00BBC1"/>
<circle cx="965.959" cy="922.34" r="3.27284" transform="rotate(147.825 965.959 922.34)" stroke="#00BBC1"/>
<circle r="3.27284" transform="matrix(-0.997519 -0.0703928 -0.0703928 0.997519 617.833 154.606)" stroke="#00BBC1"/>
<circle r="3.27284" transform="matrix(-0.997519 -0.0703928 -0.0703928 0.997519 1025 317.151)" stroke="#00BBC1"/>
<circle r="3.27284" transform="matrix(-0.775404 -0.631466 -0.631466 0.775404 1123.9 318.012)" stroke="#00BBC1"/>
<circle r="3.27284" transform="matrix(-0.997519 -0.0703928 -0.0703928 0.997519 1296.82 518.296)" stroke="#00BBC1"/>
<circle r="3.27284" transform="matrix(-0.997519 -0.0703928 -0.0703928 0.997519 1398.96 577.798)" stroke="#00BBC1"/>
<circle cx="556.321" cy="812.021" r="3.27284" transform="rotate(147.825 556.321 812.021)" stroke="#00BBC1"/>
<circle r="3.27284" transform="matrix(-0.997519 -0.0703928 -0.0703928 0.997519 308.636 445.074)" stroke="#00BBC1"/>
<circle r="3.27284" transform="matrix(-0.997519 -0.0703928 -0.0703928 0.997519 726.41 275.525)" stroke="#00BBC1"/>
<circle r="3.27284" transform="matrix(-0.997519 -0.0703928 -0.0703928 0.997519 1088.03 165.105)" stroke="#00BBC1"/>
<circle cx="480.831" cy="756.168" r="3.27284" transform="rotate(147.825 480.831 756.168)" stroke="#00BBC1"/>
<circle r="3.27284" transform="matrix(-0.997519 -0.0703928 -0.0703928 0.997519 268.409 529.927)" stroke="#00BBC1"/>
<circle r="3.27284" transform="matrix(-0.997519 -0.0703928 -0.0703928 0.997519 675.572 692.472)" stroke="#00BBC1"/>
<circle cx="523.518" cy="947.443" r="3.27284" stroke="#00BBC1"/>
<circle r="3.27284" transform="matrix(0.88181 -0.471604 -0.471604 -0.88181 215.845 341.127)" stroke="#00BBC1"/>
<circle r="3.27284" transform="matrix(0.88181 -0.471604 -0.471604 -0.88181 684.354 357.205)" stroke="#00BBC1"/>
<circle r="3.27284" transform="matrix(0.88181 -0.471604 -0.471604 -0.88181 1048.08 239.089)" stroke="#00BBC1"/>
<circle cx="938.989" cy="825.562" r="3.27284" transform="rotate(-171.172 938.989 825.562)" stroke="#00BBC1"/>
<circle cx="202.44" cy="1065.98" r="3.27284" transform="rotate(-171.172 202.44 1065.98)" stroke="#00BBC1"/>
<circle r="3.27284" transform="matrix(-0.798991 0.601342 0.601342 0.798991 639.691 252.666)" stroke="#00BBC1"/>
<circle r="3.27284" transform="matrix(-0.798991 0.601342 0.601342 0.798991 964.048 238.466)" stroke="#00BBC1"/>
<circle r="3.27284" transform="matrix(-0.798991 0.601342 0.601342 0.798991 1046.85 415.211)" stroke="#00BBC1"/>
<circle r="3.27284" transform="matrix(-0.999482 0.0321841 0.0321841 0.999482 1332.38 527.972)" stroke="#00BBC1"/>
<circle r="3.27284" transform="matrix(-0.798991 0.601342 0.601342 0.798991 1298.08 603.483)" stroke="#00BBC1"/>
<circle cx="680.8" cy="890.695" r="3.27284" transform="rotate(-117.95 680.8 890.695)" stroke="#00BBC1"/>
<circle r="3.27284" transform="matrix(0.00328563 0.999995 0.999995 -0.00328563 381.301 316.994)" stroke="#00BBC1"/>
<circle r="3.27284" transform="matrix(0.00328563 0.999995 0.999995 -0.00328563 793.467 176.696)" stroke="#00BBC1"/>
<circle r="3.27284" transform="matrix(0.00328563 0.999995 0.999995 -0.00328563 788.463 479.539)" stroke="#00BBC1"/>
<circle r="3.27284" transform="matrix(0.00328563 0.999995 0.999995 -0.00328563 1060.29 680.684)" stroke="#00BBC1"/>
<circle cx="774.861" cy="857.501" r="3.27284" transform="rotate(70.8774 774.861 857.501)" stroke="#00BBC1"/>
<circle r="3.27284" transform="matrix(-0.156709 -0.987645 -0.987645 0.156709 479.899 301.905)" stroke="#00BBC1"/>
<circle r="3.27284" transform="matrix(-0.156709 -0.987645 -0.987645 0.156709 872.003 128.391)" stroke="#00BBC1"/>
<circle r="3.27284" transform="matrix(-0.156709 -0.987645 -0.987645 0.156709 887.061 464.45)" stroke="#00BBC1"/>
<circle r="3.27284" transform="matrix(-0.156709 -0.987645 -0.987645 0.156709 1158.89 665.594)" stroke="#00BBC1"/>
<circle cx="488.362" cy="822.131" r="3.27284" transform="rotate(70.8774 488.362 822.131)" stroke="#00BBC1"/>
<circle r="3.27284" transform="matrix(-0.156709 -0.987645 -0.987645 0.156709 243.941 468.208)" stroke="#00BBC1"/>
<circle r="3.27284" transform="matrix(-0.156709 -0.987645 -0.987645 0.156709 1016.22 741.878)" stroke="#00BBC1"/>
<circle cx="812.232" cy="963.275" r="3.27284" transform="rotate(-117.95 812.232 963.275)" stroke="#00BBC1"/>
<circle r="3.27284" transform="matrix(0.00328563 0.999995 0.999995 -0.00328563 462.969 191.008)" stroke="#00BBC1"/>
<circle r="3.27284" transform="matrix(0.00328563 0.999995 0.999995 -0.00328563 745.069 174.878)" stroke="#00BBC1"/>
<circle r="3.27284" transform="matrix(0.00328563 0.999995 0.999995 -0.00328563 870.132 353.553)" stroke="#00BBC1"/>
<circle r="3.27284" transform="matrix(-0.572626 0.819817 0.819817 0.572626 1223.3 375.87)" stroke="#00BBC1"/>
<circle r="3.27284" transform="matrix(-0.572626 0.819817 0.819817 0.572626 1327.12 309.608)" stroke="#00BBC1"/>
<circle r="3.27284" transform="matrix(0.00328563 0.999995 0.999995 -0.00328563 1141.96 554.697)" stroke="#00BBC1"/>
<circle cx="431.708" cy="866.72" r="3.27284" transform="rotate(-117.95 431.708 866.72)" stroke="#00BBC1"/>
<circle r="3.27284" transform="matrix(0.00328563 0.999995 0.999995 -0.00328563 172.956 455.608)" stroke="#00BBC1"/>
<circle r="3.27284" transform="matrix(0.00328563 0.999995 0.999995 -0.00328563 1070.09 794.823)" stroke="#00BBC1"/>
<circle r="3.27284" transform="matrix(0.00328563 0.999995 0.999995 -0.00328563 425.84 597.064)" stroke="#00BBC1"/>
<circle cx="656.125" cy="765.611" r="3.27284" transform="rotate(70.8774 656.125 765.611)" stroke="#00BBC1"/>
<circle r="3.27284" transform="matrix(-0.156709 -0.987645 -0.987645 0.156709 418.532 438.931)" stroke="#00BBC1"/>
<circle r="3.27284" transform="matrix(-0.156709 -0.987645 -0.987645 0.156709 825.694 601.476)" stroke="#00BBC1"/>
<circle cx="677.581" cy="1039.57" r="3.27284" transform="rotate(-87.8978 677.581 1039.57)" stroke="#00BBC1"/>
<circle r="3.27284" transform="matrix(0.503634 0.863917 0.863917 -0.503634 308.254 187.235)" stroke="#00BBC1"/>
<circle r="3.27284" transform="matrix(0.503634 0.863917 0.863917 -0.503634 715.416 349.78)" stroke="#00BBC1"/>
<circle r="3.27284" transform="matrix(0.503634 0.863917 0.863917 -0.503634 1088.16 224.832)" stroke="#00BBC1"/>
<circle cx="800.888" cy="710.887" r="3.27284" transform="rotate(100.93 800.888 710.887)" stroke="#00BBC1"/>
<circle r="3.27284" transform="matrix(-0.630247 -0.776395 -0.776395 0.630247 541.6 444.461)" stroke="#00BBC1"/>
<circle r="3.27284" transform="matrix(-0.630247 -0.776395 -0.776395 0.630247 959.697 592.769)" stroke="#00BBC1"/>
<circle cx="603.633" cy="938.01" r="3.27284" transform="rotate(154.152 603.633 938.01)" stroke="#00BBC1"/>
<circle r="3.27284" transform="matrix(-0.999201 0.039966 0.039966 0.999201 290.94 311.663)" stroke="#00BBC1"/>
<circle r="3.27284" transform="matrix(-0.999201 0.039966 0.039966 0.999201 698.102 474.208)" stroke="#00BBC1"/>
<circle cx="858.375" cy="822.589" r="3.27284" transform="rotate(-17.0203 858.375 822.589)" stroke="#00BBC1"/>
<circle r="3.27284" transform="matrix(0.981232 -0.192833 -0.192833 -0.981232 570.007 293.305)" stroke="#00BBC1"/>
<circle r="3.27284" transform="matrix(0.981232 -0.192833 -0.192833 -0.981232 982.174 153.008)" stroke="#00BBC1"/>
<circle r="3.27284" transform="matrix(0.981232 -0.192833 -0.192833 -0.981232 977.17 455.85)" stroke="#00BBC1"/>
<circle r="3.27284" transform="matrix(0.981232 -0.192833 -0.192833 -0.981232 1249 656.995)" stroke="#00BBC1"/>
<circle r="3.27284" transform="matrix(0.981232 -0.192833 -0.192833 -0.981232 30.3715 218.057)" stroke="#00BBC1"/>
<circle cx="624.162" cy="1021.98" r="3.27284" transform="rotate(-49.3459 624.162 1021.98)" stroke="#00BBC1"/>
<circle r="3.27284" transform="matrix(0.932277 0.361746 0.361746 -0.932277 269.443 227.939)" stroke="#00BBC1"/>
<circle r="3.27284" transform="matrix(0.932277 0.361746 0.361746 -0.932277 678.521 405.778)" stroke="#00BBC1"/>
<circle r="3.27284" transform="matrix(0.932277 0.361746 0.361746 -0.932277 1090.69 265.481)" stroke="#00BBC1"/>
<circle cx="850.976" cy="736.467" r="3.27284" transform="rotate(139.482 850.976 736.467)" stroke="#00BBC1"/>
<circle r="3.27284" transform="matrix(-0.976748 -0.214391 -0.214391 0.976748 584.639 384.047)" stroke="#00BBC1"/>
<circle r="3.27284" transform="matrix(-0.976748 -0.214391 -0.214391 0.976748 996.805 243.749)" stroke="#00BBC1"/>
<circle r="3.27284" transform="matrix(-0.976748 -0.214391 -0.214391 0.976748 991.801 546.592)" stroke="#00BBC1"/>
<circle r="3.27284" transform="matrix(-0.976748 -0.214391 -0.214391 0.976748 1120.15 809.145)" stroke="#00BBC1"/>
<circle r="3.27284" transform="matrix(-0.976748 -0.214391 -0.214391 0.976748 398.716 556.283)" stroke="#00BBC1"/>
<circle cx="671.019" cy="987.849" r="3.27284" transform="rotate(-147.797 671.019 987.849)" stroke="#00BBC1"/>
<circle r="3.27284" transform="matrix(-0.494831 0.86899 0.86899 0.494831 326.857 235.935)" stroke="#00BBC1"/>
<circle r="3.27284" transform="matrix(-0.494831 0.86899 0.86899 0.494831 734.019 398.48)" stroke="#00BBC1"/>
<circle r="3.27284" transform="matrix(-0.494831 0.86899 0.86899 0.494831 1160.3 252.142)" stroke="#00BBC1"/>
<circle cx="799.437" cy="762.999" r="3.27284" transform="rotate(41.0306 799.437 762.999)" stroke="#00BBC1"/>
<circle r="3.27284" transform="matrix(0.355612 -0.934634 -0.934634 -0.355612 526.679 384.956)" stroke="#00BBC1"/>
<circle r="3.27284" transform="matrix(0.355612 -0.934634 -0.934634 -0.355612 960.136 288.963)" stroke="#00BBC1"/>
<circle r="3.27284" transform="matrix(0.355612 -0.934634 -0.934634 -0.355612 933.841 547.501)" stroke="#00BBC1"/>
<circle r="3.27284" transform="matrix(0.355612 -0.934634 -0.934634 -0.355612 1205.67 748.646)" stroke="#00BBC1"/>
<circle r="3.27284" transform="matrix(0.355612 -0.934634 -0.934634 -0.355612 615.617 631.569)" stroke="#00BBC1"/>
<circle cx="689.944" cy="1012.61" r="3.27284" transform="rotate(94.2528 689.944 1012.61)" stroke="#00BBC1"/>
<circle r="3.27284" transform="matrix(-0.535697 -0.84441 -0.84441 0.535697 331.866 205.172)" stroke="#00BBC1"/>
<circle r="3.27284" transform="matrix(-0.535697 -0.84441 -0.84441 0.535697 739.028 367.717)" stroke="#00BBC1"/>
<circle r="3.27284" transform="matrix(-0.535697 -0.84441 -0.84441 0.535697 1120.93 214.373)" stroke="#00BBC1"/>
<circle cx="784.536" cy="735.623" r="3.27284" transform="rotate(-76.9196 784.536 735.623)" stroke="#00BBC1"/>
<circle r="3.27284" transform="matrix(0.658937 0.752198 0.752198 -0.658937 526.45 416.124)" stroke="#00BBC1"/>
<circle r="3.27284" transform="matrix(0.658937 0.752198 0.752198 -0.658937 940.685 257.655)" stroke="#00BBC1"/>
<circle r="3.27284" transform="matrix(0.658937 0.752198 0.752198 -0.658937 933.612 578.669)" stroke="#00BBC1"/>
<circle cx="465.161" cy="946.916" r="3.27284" transform="rotate(8.705 465.161 946.916)" stroke="#00BBC1"/>
<circle r="3.27284" transform="matrix(0.800277 -0.599631 -0.599631 -0.800277 143.327 348.819)" stroke="#00BBC1"/>
<circle r="3.27284" transform="matrix(0.800277 -0.599631 -0.599631 -0.800277 573.943 456.155)" stroke="#00BBC1"/>
<circle cx="996.574" cy="835.039" r="3.27284" transform="rotate(-162.467 996.574 835.039)" stroke="#00BBC1"/>
<circle cx="393.982" cy="796.529" r="3.27284" transform="rotate(-162.467 393.982 796.529)" stroke="#00BBC1"/>
<circle r="3.27284" transform="matrix(-0.698776 0.715341 0.715341 0.698776 686 217.152)" stroke="#00BBC1"/>
<circle r="3.27284" transform="matrix(-0.698776 0.715341 0.715341 0.698776 879.983 230.167)" stroke="#00BBC1"/>
<circle r="3.27284" transform="matrix(-0.698776 0.715341 0.715341 0.698776 1093.16 379.697)" stroke="#00BBC1"/>
<circle r="3.27284" transform="matrix(-0.983098 0.183082 0.183082 0.983098 1153.51 377.324)" stroke="#00BBC1"/>
<circle r="3.27284" transform="matrix(-0.983098 0.183082 0.183082 0.983098 1232.92 808.041)" stroke="#00BBC1"/>
<circle r="3.27284" transform="matrix(-0.698776 0.715341 0.715341 0.698776 1176.91 538.718)" stroke="#00BBC1"/>
<circle cx="586.935" cy="724.72" r="3.27284" transform="rotate(-162.467 586.935 724.72)" stroke="#00BBC1"/>
<circle r="3.27284" transform="matrix(-0.698776 0.715341 0.715341 0.698776 376.804 507.619)" stroke="#00BBC1"/>
<circle r="3.27284" transform="matrix(-0.698776 0.715341 0.715341 0.698776 783.966 670.164)" stroke="#00BBC1"/>
<circle cx="589.133" cy="873.421" r="3.27284" transform="rotate(46.8951 589.133 873.421)" stroke="#00BBC1"/>
<circle r="3.27284" transform="matrix(0.258253 -0.966077 -0.966077 -0.258253 308.614 375.457)" stroke="#00BBC1"/>
<circle r="3.27284" transform="matrix(0.258253 -0.966077 -0.966077 -0.258253 748.855 265.945)" stroke="#00BBC1"/>
<circle r="3.27284" transform="matrix(0.258253 -0.966077 -0.966077 -0.258253 1186.1 225.548)" stroke="#00BBC1"/>
<circle cx="862.792" cy="888.638" r="3.27284" transform="rotate(-124.277 862.792 888.638)" stroke="#00BBC1"/>
<circle r="3.27284" transform="matrix(-0.106937 0.994266 0.994266 0.106937 542.753 232.98)" stroke="#00BBC1"/>
<circle r="3.27284" transform="matrix(-0.106937 0.994266 0.994266 0.106937 775.37 206.562)" stroke="#00BBC1"/>
<circle r="3.27284" transform="matrix(-0.106937 0.994266 0.994266 0.106937 949.915 395.525)" stroke="#00BBC1"/>
<circle r="3.27284" transform="matrix(-0.659484 0.751718 0.751718 0.659484 1264.41 456.1)" stroke="#00BBC1"/>
<circle r="3.27284" transform="matrix(-0.106937 0.994266 0.994266 0.106937 1221.74 596.669)" stroke="#00BBC1"/>
<circle cx="458.691" cy="797.904" r="3.27284" transform="rotate(-124.277 458.691 797.904)" stroke="#00BBC1"/>
<circle r="3.27284" transform="matrix(-0.106937 0.994266 0.994266 0.106937 229.203 503.566)" stroke="#00BBC1"/>
<circle r="3.27284" transform="matrix(-0.106937 0.994266 0.994266 0.106937 815.58 564.124)" stroke="#00BBC1"/>
<circle cx="558.135" cy="910.786" r="3.27284" transform="rotate(-81.6084 558.135 910.786)" stroke="#00BBC1"/>
<circle r="3.27284" transform="matrix(0.595244 0.803545 0.803545 -0.595244 263.658 357.127)" stroke="#00BBC1"/>
<circle r="3.27284" transform="matrix(0.595244 0.803545 0.803545 -0.595244 922.089 615.862)" stroke="#00BBC1"/>
<circle cx="899.157" cy="856.472" r="3.27284" transform="rotate(107.219 899.157 856.472)" stroke="#00BBC1"/>
<circle r="3.27284" transform="matrix(-0.711507 -0.702679 -0.702679 0.711507 589.989 244.194)" stroke="#00BBC1"/>
<circle r="3.27284" transform="matrix(-0.711507 -0.702679 -0.702679 0.711507 896.174 310.928)" stroke="#00BBC1"/>
<circle r="3.27284" transform="matrix(-0.711507 -0.702679 -0.702679 0.711507 997.151 406.739)" stroke="#00BBC1"/>
<circle r="3.27284" transform="matrix(-0.177701 -0.984085 -0.984085 0.177701 1296.6 492.448)" stroke="#00BBC1"/>
<circle r="3.27284" transform="matrix(-0.711507 -0.702679 -0.702679 0.711507 1268.98 607.883)" stroke="#00BBC1"/>
<circle cx="593.775" cy="901.596" r="3.27284" transform="rotate(160.441 593.775 901.596)" stroke="#00BBC1"/>
<circle r="3.27284" transform="matrix(-0.988809 0.149187 0.149187 0.988809 299.42 348.423)" stroke="#00BBC1"/>
<circle r="3.27284" transform="matrix(-0.988809 0.149187 0.149187 0.988809 750.303 318.012)" stroke="#00BBC1"/>
<circle r="3.27284" transform="matrix(-0.988809 0.149187 0.149187 0.988809 1127.25 183.816)" stroke="#00BBC1"/>
<circle cx="862.529" cy="860.084" r="3.27284" transform="rotate(-10.731 862.529 860.084)" stroke="#00BBC1"/>
<circle r="3.27284" transform="matrix(0.954201 -0.299165 -0.299165 -0.954201 555.987 258.282)" stroke="#00BBC1"/>
<circle r="3.27284" transform="matrix(0.954201 -0.299165 -0.299165 -0.954201 968.153 117.985)" stroke="#00BBC1"/>
<circle r="3.27284" transform="matrix(0.954201 -0.299165 -0.299165 -0.954201 963.149 420.827)" stroke="#00BBC1"/>
<circle r="3.27284" transform="matrix(0.952585 0.304271 0.304271 -0.952585 1260.68 484.41)" stroke="#00BBC1"/>
<circle r="3.27284" transform="matrix(0.954201 -0.299165 -0.299165 -0.954201 1234.98 621.972)" stroke="#00BBC1"/>
<circle cx="763.061" cy="1004.05" r="3.27284" transform="rotate(-13.0042 763.061 1004.05)" stroke="#00BBC1"/>
<circle r="3.27284" transform="matrix(0.965317 -0.261082 -0.261082 -0.965317 400.382 178.245)" stroke="#00BBC1"/>
<circle r="3.27284" transform="matrix(0.965317 -0.261082 -0.261082 -0.965317 807.544 340.79)" stroke="#00BBC1"/>
<circle r="3.27284" transform="matrix(0.939767 0.341815 0.341815 -0.939767 1179.45 329.423)" stroke="#00BBC1"/>
<circle r="3.27284" transform="matrix(0.965317 -0.261082 -0.261082 -0.965317 1079.37 541.934)" stroke="#00BBC1"/>
<circle cx="710.971" cy="732.868" r="3.27284" transform="rotate(175.823 710.971 732.868)" stroke="#00BBC1"/>
<circle cx="740.198" cy="1057.63" r="3.27284" transform="rotate(175.823 740.198 1057.63)" stroke="#00BBC1"/>
<circle r="3.27284" transform="matrix(-0.913815 0.40613 0.40613 0.913815 482.337 441.939)" stroke="#00BBC1"/>
<circle r="3.27284" transform="matrix(-0.913815 0.40613 0.40613 0.913815 889.499 604.483)" stroke="#00BBC1"/>
<circle cx="661.29" cy="924.055" r="3.27284" transform="rotate(-13.0042 661.29 924.055)" stroke="#00BBC1"/>
<circle r="3.27284" transform="matrix(0.965317 -0.261082 -0.261082 -0.965317 348.364 296.778)" stroke="#00BBC1"/>
<circle r="3.27284" transform="matrix(0.965317 -0.261082 -0.261082 -0.965317 755.526 459.323)" stroke="#00BBC1"/>
<circle cx="799.26" cy="827.531" r="3.27284" transform="rotate(175.823 799.26 827.531)" stroke="#00BBC1"/>
<circle r="3.27284" transform="matrix(-0.913815 0.40613 0.40613 0.913815 515.548 316.827)" stroke="#00BBC1"/>
<circle r="3.27284" transform="matrix(-0.913815 0.40613 0.40613 0.913815 927.714 176.529)" stroke="#00BBC1"/>
<circle r="3.27284" transform="matrix(-0.913815 0.40613 0.40613 0.913815 922.71 479.372)" stroke="#00BBC1"/>
<circle r="3.27284" transform="matrix(-0.913815 0.40613 0.40613 0.913815 1194.54 680.516)" stroke="#00BBC1"/>
<circle r="3.27284" transform="matrix(-0.913815 0.40613 0.40613 0.913815 575.165 495.882)" stroke="#00BBC1"/>
<path d="M518.123 889.099L523.518 879.754L528.914 889.099H518.123Z" stroke="#00BBC1"/>
<path d="M238.603 395.121L247.768 400.817L248.118 390.032L238.603 395.121Z" stroke="#00BBC1"/>
<path d="M958.219 645.745L967.383 651.441L967.734 640.656L958.219 645.745Z" stroke="#00BBC1"/>
<path d="M935.367 884.043L928.601 892.45L924.704 882.387L935.367 884.043Z" stroke="#00BBC1"/>
<path d="M608.917 202.805L598.986 198.583L600.295 209.294L608.917 202.805Z" stroke="#00BBC1"/>
<path d="M282.509 9.48942L272.578 5.26733L273.887 15.9783L282.509 9.48942Z" stroke="#00BBC1"/>
<path d="M775.991 350.862L766.061 346.64L767.37 357.351L775.991 350.862Z" stroke="#00BBC1"/>
<path d="M1016.08 365.35L1006.15 361.128L1007.46 371.838L1016.08 365.35Z" stroke="#00BBC1"/>
<path d="M1363.56 466.79L1357.86 457.624L1352.77 467.137L1363.56 466.79Z" stroke="#00BBC1"/>
<path d="M1287.91 566.494L1277.98 562.272L1279.28 572.983L1287.91 566.494Z" stroke="#00BBC1"/>
<path d="M527.697 816.428L520.932 824.834L517.035 814.772L527.697 816.428Z" stroke="#00BBC1"/>
<path d="M281.317 454.687L271.387 450.465L272.696 461.176L281.317 454.687Z" stroke="#00BBC1"/>
<path d="M914.988 689.457L905.058 685.235L906.367 695.946L914.988 689.457Z" stroke="#00BBC1"/>
<path d="M548.544 731.213L537.807 732.289L542.243 722.453L548.544 731.213Z" stroke="#00BBC1"/>
<path d="M193.811 542.258L183.836 546.372L192.387 552.954L193.811 542.258Z" stroke="#00BBC1"/>
<path d="M747.05 682.544L737.075 686.658L745.626 693.24L747.05 682.544Z" stroke="#00BBC1"/>
<path d="M445.478 919.817L456.242 920.574L450.204 929.518L445.478 919.817Z" stroke="#00BBC1"/>
<path d="M142.634 407.323L151.769 401.579L142.227 396.54L142.634 407.323Z" stroke="#00BBC1"/>
<path d="M1061.9 845.699L1071.03 839.955L1061.49 834.916L1061.9 845.699Z" stroke="#00BBC1"/>
<path d="M336.571 917.087L345.706 911.343L336.164 906.304L336.571 917.087Z" stroke="#00BBC1"/>
<path d="M1011.87 864.837L1001.35 862.437L1008.68 854.526L1011.87 864.837Z" stroke="#00BBC1"/>
<path d="M685.432 183.664L677.287 190.742L687.489 194.257L685.432 183.664Z" stroke="#00BBC1"/>
<path d="M1081.42 452.851L1073.28 459.929L1083.48 463.444L1081.42 452.851Z" stroke="#00BBC1"/>
<path d="M1107.89 102.07L1099.74 109.148L1109.95 112.663L1107.89 102.07Z" stroke="#00BBC1"/>
<path d="M1092.6 346.209L1084.45 353.287L1094.65 356.802L1092.6 346.209Z" stroke="#00BBC1"/>
<path d="M1272.33 328.495L1261.6 329.598L1267.92 338.342L1272.33 328.495Z" stroke="#00BBC1"/>
<path d="M1289.58 216.022L1278.84 217.125L1285.17 225.87L1289.58 216.022Z" stroke="#00BBC1"/>
<path d="M1193.21 496.336L1184.06 490.615L1183.68 501.399L1193.21 496.336Z" stroke="#00BBC1"/>
<path d="M602.227 754.518L591.707 752.118L599.045 744.207L602.227 754.518Z" stroke="#00BBC1"/>
<path d="M376.235 474.131L368.09 481.209L378.292 484.724L376.235 474.131Z" stroke="#00BBC1"/>
<path d="M783.398 636.676L775.253 643.754L785.455 647.269L783.398 636.676Z" stroke="#00BBC1"/>
<path d="M549.322 980.348L538.832 977.819L546.267 969.998L549.322 980.348Z" stroke="#00BBC1"/>
<path d="M223.081 299.943L215.024 307.12L225.268 310.509L223.081 299.943Z" stroke="#00BBC1"/>
<path d="M619.245 476.129L611.188 483.307L621.432 486.696L619.245 476.129Z" stroke="#00BBC1"/>
<path d="M918.54 789.087L928.518 793.196L919.971 799.783L918.54 789.087Z" stroke="#00BBC1"/>
<path d="M261.206 775.726L271.184 779.835L262.637 786.422L261.206 775.726Z" stroke="#00BBC1"/>
<path d="M638.861 294.473L645.721 286.144L635.078 284.367L638.861 294.473Z" stroke="#00BBC1"/>
<path d="M1051.03 154.176L1057.89 145.847L1047.24 144.07L1051.03 154.176Z" stroke="#00BBC1"/>
<path d="M1046.02 457.018L1052.88 448.689L1042.24 446.912L1046.02 457.018Z" stroke="#00BBC1"/>
<path d="M1080.58 770.797L1087.45 762.469L1076.8 760.691L1080.58 770.797Z" stroke="#00BBC1"/>
<path d="M374.663 728.114L381.523 719.785L370.88 718.008L374.663 728.114Z" stroke="#00BBC1"/>
<path d="M642.451 712.16L652.428 716.269L643.881 722.855L642.451 712.16Z" stroke="#00BBC1"/>
<path d="M431.681 492.513L438.542 484.185L427.899 482.408L431.681 492.513Z" stroke="#00BBC1"/>
<path d="M838.844 655.058L845.704 646.729L835.061 644.952L838.844 655.058Z" stroke="#00BBC1"/>
<path d="M1135.15 936.601L1142.01 928.272L1131.37 926.495L1135.15 936.601Z" stroke="#00BBC1"/>
<path d="M637.003 891.107L626.513 888.578L633.948 880.758L637.003 891.107Z" stroke="#00BBC1"/>
<path d="M342.485 337.285L334.427 344.462L344.672 347.852L342.485 337.285Z" stroke="#00BBC1"/>
<path d="M749.647 499.83L741.59 507.007L751.834 510.396L749.647 499.83Z" stroke="#00BBC1"/>
<path d="M818.203 863.815L828.181 867.924L819.634 874.51L818.203 863.815Z" stroke="#00BBC1"/>
<path d="M515.141 275.897L522.001 267.569L511.358 265.791L515.141 275.897Z" stroke="#00BBC1"/>
<path d="M913.299 132.509L920.159 124.18L909.516 122.403L913.299 132.509Z" stroke="#00BBC1"/>
<path d="M922.303 438.442L929.164 430.113L918.521 428.336L922.303 438.442Z" stroke="#00BBC1"/>
<path d="M1217.14 475.318L1227.54 472.453L1219.86 464.876L1217.14 475.318Z" stroke="#00BBC1"/>
<path d="M1194.13 639.587L1200.99 631.258L1190.35 629.481L1194.13 639.587Z" stroke="#00BBC1"/>
<path d="M150.374 174.819L157.234 166.491L146.591 164.714L150.374 174.819Z" stroke="#00BBC1"/>
<path d="M878.02 960.239L885.048 952.051L888.625 962.232L878.02 960.239Z" stroke="#00BBC1"/>
<path d="M522.413 162.659L532.472 166.565L530.825 155.901L522.413 162.659Z" stroke="#00BBC1"/>
<path d="M929.576 325.204L939.635 329.11L937.988 318.446L929.576 325.204Z" stroke="#00BBC1"/>
<path d="M1288.24 386.882L1294.22 395.863L1299 386.193L1288.24 386.882Z" stroke="#00BBC1"/>
<path d="M1201.4 526.349L1211.46 530.255L1209.82 519.59L1201.4 526.349Z" stroke="#00BBC1"/>
<path d="M1349.27 731.445L1359.33 735.351L1357.68 724.687L1349.27 731.445Z" stroke="#00BBC1"/>
<path d="M805.962 925.268L804.702 935.985L796.051 929.534L805.962 925.268Z" stroke="#00BBC1"/>
<path d="M475.365 227.48L469.199 218.624L464.613 228.392L475.365 227.48Z" stroke="#00BBC1"/>
<path d="M829.034 285.908L822.868 277.052L818.282 286.82L829.034 285.908Z" stroke="#00BBC1"/>
<path d="M882.528 390.025L876.362 381.169L871.776 390.937L882.528 390.025Z" stroke="#00BBC1"/>
<path d="M1212.46 412.833L1212.51 402.042L1203.14 407.393L1212.46 412.833Z" stroke="#00BBC1"/>
<path d="M1154.36 591.17L1148.19 582.314L1143.6 592.082L1154.36 591.17Z" stroke="#00BBC1"/>
<path d="M717.079 909.3L708.435 915.758L707.164 905.043L717.079 909.3Z" stroke="#00BBC1"/>
<path d="M404.518 283.478L393.849 281.86L397.782 291.908L404.518 283.478Z" stroke="#00BBC1"/>
<path d="M828.979 132.679L818.311 131.061L822.243 141.109L828.979 132.679Z" stroke="#00BBC1"/>
<path d="M811.68 446.023L801.012 444.405L804.944 454.453L811.68 446.023Z" stroke="#00BBC1"/>
<path d="M1083.51 647.168L1072.84 645.549L1076.77 655.598L1083.51 647.168Z" stroke="#00BBC1"/>
<path d="M97.1199 468.612L86.4514 466.993L90.3838 477.042L97.1199 468.612Z" stroke="#00BBC1"/>
<path d="M741.867 833.549L751.4 828.493L751.012 839.277L741.867 833.549Z" stroke="#00BBC1"/>
<path d="M462.1 338.586L472.891 338.548L467.463 329.222L462.1 338.586Z" stroke="#00BBC1"/>
<path d="M874.267 198.289L885.057 198.251L879.629 188.925L874.267 198.289Z" stroke="#00BBC1"/>
<path d="M869.263 501.131L880.053 501.093L874.625 491.767L869.263 501.131Z" stroke="#00BBC1"/>
<path d="M1141.09 702.276L1151.88 702.238L1146.45 692.912L1141.09 702.276Z" stroke="#00BBC1"/>
<path d="M633.554 969.936L636.755 959.631L644.078 967.556L633.554 969.936Z" stroke="#00BBC1"/>
<path d="M302.267 269.4L309.95 276.977L312.671 266.535L302.267 269.4Z" stroke="#00BBC1"/>
<path d="M699.688 388.253L707.37 395.831L710.091 385.389L699.688 388.253Z" stroke="#00BBC1"/>
<path d="M1111.85 247.956L1119.54 255.533L1122.26 245.091L1111.85 247.956Z" stroke="#00BBC1"/>
<path d="M833.709 786.449L828.964 796.141L822.943 787.186L833.709 786.449Z" stroke="#00BBC1"/>
<path d="M565.3 336.807L556.545 330.498L555.459 341.234L565.3 336.807Z" stroke="#00BBC1"/>
<path d="M977.466 196.509L968.712 190.2L967.625 200.936L977.466 196.509Z" stroke="#00BBC1"/>
<path d="M972.462 499.351L963.708 493.043L962.622 503.779L972.462 499.351Z" stroke="#00BBC1"/>
<path d="M1244.29 700.496L1235.54 694.188L1234.45 704.923L1244.29 700.496Z" stroke="#00BBC1"/>
<path d="M333.711 580.827L324.956 574.518L323.87 585.254L333.711 580.827Z" stroke="#00BBC1"/>
<rect x="550.265" y="844.893" width="8.64329" height="8.64329" transform="rotate(24.7609 550.265 844.893)" stroke="#00BBC1"/>
<rect x="-0.0971799" y="-0.700397" width="8.64329" height="8.64329" transform="matrix(0.603217 -0.797577 -0.797577 -0.603217 287.294 418.443)" stroke="#00BBC1"/>
<rect x="-0.0971799" y="-0.700397" width="8.64329" height="8.64329" transform="matrix(0.603217 -0.797577 -0.797577 -0.603217 1015.8 644.454)" stroke="#00BBC1"/>
<rect x="896.821" y="922.792" width="8.64329" height="8.64329" transform="rotate(-146.411 896.821 922.792)" stroke="#00BBC1"/>
<rect x="0.203514" y="0.677187" width="8.64329" height="8.64329" transform="matrix(-0.473673 0.880701 0.880701 0.473673 556.153 186.313)" stroke="#00BBC1"/>
<rect x="0.203514" y="0.677187" width="8.64329" height="8.64329" transform="matrix(-0.473673 0.880701 0.880701 0.473673 1062.01 280.078)" stroke="#00BBC1"/>
<rect x="0.203514" y="0.677187" width="8.64329" height="8.64329" transform="matrix(-0.473673 0.880701 0.880701 0.473673 963.315 348.858)" stroke="#00BBC1"/>
<rect x="-0.223137" y="0.670977" width="8.64329" height="8.64329" transform="matrix(-0.894114 0.44784 0.44784 0.894114 1301.84 425.836)" stroke="#00BBC1"/>
<rect x="0.203514" y="0.677187" width="8.64329" height="8.64329" transform="matrix(-0.473673 0.880701 0.880701 0.473673 1235.14 550.003)" stroke="#00BBC1"/>
<rect x="513.494" y="787.311" width="8.64329" height="8.64329" transform="rotate(-146.411 513.494 787.311)" stroke="#00BBC1"/>
<rect x="0.203514" y="0.677187" width="8.64329" height="8.64329" transform="matrix(-0.473673 0.880701 0.880701 0.473673 282.025 486.561)" stroke="#00BBC1"/>
<rect x="0.203514" y="0.677187" width="8.64329" height="8.64329" transform="matrix(-0.473673 0.880701 0.880701 0.473673 837.611 681.897)" stroke="#00BBC1"/>
<rect x="566.789" y="946.867" width="8.64329" height="8.64329" transform="rotate(-20.0212 566.789 946.867)" stroke="#00BBC1"/>
<rect x="0.424391" y="-0.56559" width="8.64329" height="8.64329" transform="matrix(0.989981 -0.141199 -0.141199 -0.989981 253.773 320.729)" stroke="#00BBC1"/>
<rect x="0.424391" y="-0.56559" width="8.64329" height="8.64329" transform="matrix(0.989981 -0.141199 -0.141199 -0.989981 660.936 483.274)" stroke="#00BBC1"/>
<rect x="896.142" y="819.491" width="8.64329" height="8.64329" transform="rotate(168.806 896.142 819.491)" stroke="#00BBC1"/>
<rect x="257.131" y="946.956" width="8.64329" height="8.64329" transform="rotate(168.806 257.131 946.956)" stroke="#00BBC1"/>
<rect x="-0.332567" y="0.624019" width="8.64329" height="8.64329" transform="matrix(-0.956586 0.291452 0.291452 0.956586 604.272 277.726)" stroke="#00BBC1"/>
<rect x="-0.332567" y="0.624019" width="8.64329" height="8.64329" transform="matrix(-0.956586 0.291452 0.291452 0.956586 1016.44 137.429)" stroke="#00BBC1"/>
<rect x="-0.332567" y="0.624019" width="8.64329" height="8.64329" transform="matrix(-0.956586 0.291452 0.291452 0.956586 1011.43 440.271)" stroke="#00BBC1"/>
<rect x="-0.332567" y="0.624019" width="8.64329" height="8.64329" transform="matrix(-0.956586 0.291452 0.291452 0.956586 1283.26 641.416)" stroke="#00BBC1"/>
<rect x="-0.332567" y="0.624019" width="8.64329" height="8.64329" transform="matrix(-0.956586 0.291452 0.291452 0.956586 518.96 568.403)" stroke="#00BBC1"/>
<rect x="693.478" y="947.237" width="8.64329" height="8.64329" transform="rotate(28.4762 693.478 947.237)" stroke="#00BBC1"/>
<rect x="-0.14236" y="-0.692628" width="8.64329" height="8.64329" transform="matrix(0.550268 -0.834988 -0.834988 -0.550268 365.314 260.655)" stroke="#00BBC1"/>
<rect x="-0.14236" y="-0.692628" width="8.64329" height="8.64329" transform="matrix(0.550268 -0.834988 -0.834988 -0.550268 772.477 423.2)" stroke="#00BBC1"/>
<rect x="-0.14236" y="-0.692628" width="8.64329" height="8.64329" transform="matrix(0.550268 -0.834988 -0.834988 -0.550268 1168.43 207.302)" stroke="#00BBC1"/>
<rect x="-0.14236" y="-0.692628" width="8.64329" height="8.64329" transform="matrix(0.550268 -0.834988 -0.834988 -0.550268 1177.41 123.472)" stroke="#00BBC1"/>
<rect x="-0.14236" y="-0.692628" width="8.64329" height="8.64329" transform="matrix(0.550268 -0.834988 -0.834988 -0.550268 1044.3 624.345)" stroke="#00BBC1"/>
<rect x="771.011" y="799.683" width="8.64329" height="8.64329" transform="rotate(-142.696 771.011 799.683)" stroke="#00BBC1"/>
<rect x="0.246967" y="0.662576" width="8.64329" height="8.64329" transform="matrix(-0.41561 0.909543 0.909543 0.41561 503.271 354.205)" stroke="#00BBC1"/>
<rect x="0.246967" y="0.662576" width="8.64329" height="8.64329" transform="matrix(-0.41561 0.909543 0.909543 0.41561 915.438 213.908)" stroke="#00BBC1"/>
<rect x="0.246967" y="0.662576" width="8.64329" height="8.64329" transform="matrix(-0.41561 0.909543 0.909543 0.41561 910.433 516.75)" stroke="#00BBC1"/>
<rect x="0.246967" y="0.662576" width="8.64329" height="8.64329" transform="matrix(-0.41561 0.909543 0.909543 0.41561 1182.26 717.895)" stroke="#00BBC1"/>
<rect x="0.246967" y="0.662576" width="8.64329" height="8.64329" transform="matrix(-0.41561 0.909543 0.909543 0.41561 657.135 526.345)" stroke="#00BBC1"/>
<rect x="763.96" y="976.043" width="8.64329" height="8.64329" transform="rotate(8.61294 763.96 976.043)" stroke="#00BBC1"/>
<rect x="0.101448" y="-0.699792" width="8.64329" height="8.64329" transform="matrix(0.801239 -0.598344 -0.598344 -0.801239 413.881 202.014)" stroke="#00BBC1"/>
<rect x="0.101448" y="-0.699792" width="8.64329" height="8.64329" transform="matrix(0.801239 -0.598344 -0.598344 -0.801239 410.152 148.871)" stroke="#00BBC1"/>
<rect x="0.101448" y="-0.699792" width="8.64329" height="8.64329" transform="matrix(0.801239 -0.598344 -0.598344 -0.801239 707.291 140.498)" stroke="#00BBC1"/>
<rect x="0.101448" y="-0.699792" width="8.64329" height="8.64329" transform="matrix(0.801239 -0.598344 -0.598344 -0.801239 821.043 364.559)" stroke="#00BBC1"/>
<rect x="0.485579" y="-0.514017" width="8.64329" height="8.64329" transform="matrix(0.999596 -0.0284384 -0.0284384 -0.999596 1176.44 356.827)" stroke="#00BBC1"/>
<rect x="0.101448" y="-0.699792" width="8.64329" height="8.64329" transform="matrix(0.801239 -0.598344 -0.598344 -0.801239 1092.87 565.704)" stroke="#00BBC1"/>
<rect x="705.785" y="760.402" width="8.64329" height="8.64329" transform="rotate(-162.559 705.785 760.402)" stroke="#00BBC1"/>
<rect x="0.00714606" y="0.707071" width="8.64329" height="8.64329" transform="matrix(-0.699925 0.714217 0.714217 0.699925 464.279 419.605)" stroke="#00BBC1"/>
<rect x="0.00714606" y="0.707071" width="8.64329" height="8.64329" transform="matrix(-0.699925 0.714217 0.714217 0.699925 876.445 279.307)" stroke="#00BBC1"/>
<rect x="0.00714606" y="0.707071" width="8.64329" height="8.64329" transform="matrix(-0.699925 0.714217 0.714217 0.699925 871.441 582.15)" stroke="#00BBC1"/>
<rect x="0.00714606" y="0.707071" width="8.64329" height="8.64329" transform="matrix(-0.699925 0.714217 0.714217 0.699925 1428.57 403.535)" stroke="#00BBC1"/>
<rect x="581.867" y="1034.25" width="8.64329" height="8.64329" transform="rotate(-33.003 581.867 1034.25)" stroke="#00BBC1"/>
<rect x="893.749" y="1130.43" width="8.64329" height="8.64329" transform="rotate(-33.003 893.749 1130.43)" stroke="#00BBC1"/>
<rect x="0.540599" y="-0.455799" width="8.64329" height="8.64329" transform="matrix(0.996398 0.0848006 0.0848006 -0.996398 225.859 236.562)" stroke="#00BBC1"/>
<rect x="0.540599" y="-0.455799" width="8.64329" height="8.64329" transform="matrix(0.996398 0.0848006 0.0848006 -0.996398 624.263 395.827)" stroke="#00BBC1"/>
<rect x="0.540599" y="-0.455799" width="8.64329" height="8.64329" transform="matrix(0.996398 0.0848006 0.0848006 -0.996398 1221.78 297.834)" stroke="#00BBC1"/>
<rect x="0.540599" y="-0.455799" width="8.64329" height="8.64329" transform="matrix(0.996398 0.0848006 0.0848006 -0.996398 1412.93 306.787)" stroke="#00BBC1"/>
<rect x="894.653" y="730.828" width="8.64329" height="8.64329" transform="rotate(155.825 894.653 730.828)" stroke="#00BBC1"/>
<rect x="432.32" y="1120.83" width="8.64329" height="8.64329" transform="rotate(155.825 432.32 1120.83)" stroke="#00BBC1"/>
<rect x="-0.464247" y="0.533361" width="8.64329" height="8.64329" transform="matrix(-0.997609 0.0691138 0.0691138 0.997609 644.772 356.612)" stroke="#00BBC1"/>
<rect x="-0.464247" y="0.533361" width="8.64329" height="8.64329" transform="matrix(-0.997609 0.0691138 0.0691138 0.997609 1051.93 519.157)" stroke="#00BBC1"/>
<rect x="-0.464247" y="0.533361" width="8.64329" height="8.64329" transform="matrix(-0.997609 0.0691138 0.0691138 0.997609 1007.43 517.663)" stroke="#00BBC1"/>
<rect x="611.77" y="835.989" width="8.64329" height="8.64329" transform="rotate(155.825 611.77 835.989)" stroke="#00BBC1"/>
<rect x="-0.464247" y="0.533361" width="8.64329" height="8.64329" transform="matrix(-0.997609 0.0691138 0.0691138 0.997609 345.728 397.289)" stroke="#00BBC1"/>
<rect x="-0.464247" y="0.533361" width="8.64329" height="8.64329" transform="matrix(-0.997609 0.0691138 0.0691138 0.997609 736.106 433.068)" stroke="#00BBC1"/>
<rect x="446.708" y="879.554" width="8.64329" height="8.64329" transform="rotate(36.1794 446.708 879.554)" stroke="#00BBC1"/>
<rect x="-0.233917" y="-0.667295" width="8.64329" height="8.64329" transform="matrix(0.433378 -0.901213 -0.901213 -0.433378 179.629 436.717)" stroke="#00BBC1"/>
<rect x="-0.233917" y="-0.667295" width="8.64329" height="8.64329" transform="matrix(0.433378 -0.901213 -0.901213 -0.433378 1121.23 782.114)" stroke="#00BBC1"/>
<rect x="1004.47" y="904.434" width="8.64329" height="8.64329" transform="rotate(-134.993 1004.47 904.434)" stroke="#00BBC1"/>
<rect x="967.575" y="983.689" width="8.64329" height="8.64329" transform="rotate(-134.993 967.575 983.689)" stroke="#00BBC1"/>
<rect x="0.333551" y="0.623493" width="8.64329" height="8.64329" transform="matrix(-0.289941 0.957044 0.957044 0.289941 659.737 151.734)" stroke="#00BBC1"/>
<rect x="0.333551" y="0.623493" width="8.64329" height="8.64329" transform="matrix(-0.289941 0.957044 0.957044 0.289941 1066.9 314.278)" stroke="#00BBC1"/>
<rect x="-0.0858834" y="0.701872" width="8.64329" height="8.64329" transform="matrix(-0.787755 0.615988 0.615988 0.787755 1133.15 347.146)" stroke="#00BBC1"/>
<rect x="0.333551" y="0.623493" width="8.64329" height="8.64329" transform="matrix(-0.289941 0.957044 0.957044 0.289941 1262.2 522.449)" stroke="#00BBC1"/>
<rect x="594.833" y="794.116" width="8.64329" height="8.64329" transform="rotate(-134.993 594.833 794.116)" stroke="#00BBC1"/>
<rect x="0.333551" y="0.623493" width="8.64329" height="8.64329" transform="matrix(-0.289941 0.957044 0.957044 0.289941 350.541 442.201)" stroke="#00BBC1"/>
<rect x="0.333551" y="0.623493" width="8.64329" height="8.64329" transform="matrix(-0.289941 0.957044 0.957044 0.289941 757.703 604.746)" stroke="#00BBC1"/>
<rect x="798.157" y="878.533" width="8.64329" height="8.64329" transform="rotate(36.1794 798.157 878.533)" stroke="#00BBC1"/>
<rect x="-0.233917" y="-0.667295" width="8.64329" height="8.64329" transform="matrix(0.433378 -0.901213 -0.901213 -0.433378 490.023 271.873)" stroke="#00BBC1"/>
<rect x="-0.233917" y="-0.667295" width="8.64329" height="8.64329" transform="matrix(0.433378 -0.901213 -0.901213 -0.433378 899.336 158.912)" stroke="#00BBC1"/>
<rect x="-0.233917" y="-0.667295" width="8.64329" height="8.64329" transform="matrix(0.433378 -0.901213 -0.901213 -0.433378 897.186 434.417)" stroke="#00BBC1"/>
<rect x="0.192577" y="-0.680378" width="8.64329" height="8.64329" transform="matrix(0.872955 -0.487801 -0.487801 -0.872955 1198.53 457.772)" stroke="#00BBC1"/>
<rect x="-0.233917" y="-0.667295" width="8.64329" height="8.64329" transform="matrix(0.433378 -0.901213 -0.901213 -0.433378 1169.01 635.562)" stroke="#00BBC1"/>
<rect x="420.6" y="929.278" width="8.64329" height="8.64329" transform="rotate(36.1794 420.6 929.278)" stroke="#00BBC1"/>
<rect x="-0.233917" y="-0.667295" width="8.64329" height="8.64329" transform="matrix(0.433378 -0.901213 -0.901213 -0.433378 8.28488 364.587)" stroke="#00BBC1"/>
<rect x="-0.233917" y="-0.667295" width="8.64329" height="8.64329" transform="matrix(0.433378 -0.901213 -0.901213 -0.433378 962.198 720.673)" stroke="#00BBC1"/>
<rect x="657.028" y="851.509" width="8.64329" height="8.64329" transform="rotate(-134.993 657.028 851.509)" stroke="#00BBC1"/>
<rect x="0.333551" y="0.623493" width="8.64329" height="8.64329" transform="matrix(-0.289941 0.957044 0.957044 0.289941 378.318 362.259)" stroke="#00BBC1"/>
<rect x="0.333551" y="0.623493" width="8.64329" height="8.64329" transform="matrix(-0.289941 0.957044 0.957044 0.289941 790.484 221.962)" stroke="#00BBC1"/>
<rect x="0.333551" y="0.623493" width="8.64329" height="8.64329" transform="matrix(-0.289941 0.957044 0.957044 0.289941 785.481 524.804)" stroke="#00BBC1"/>
<rect x="0.333551" y="0.623493" width="8.64329" height="8.64329" transform="matrix(-0.289941 0.957044 0.957044 0.289941 1033.51 668.615)" stroke="#00BBC1"/>
<rect x="0.333551" y="0.623493" width="8.64329" height="8.64329" transform="matrix(-0.289941 0.957044 0.957044 0.289941 668.468 646.317)" stroke="#00BBC1"/>
<rect x="453.503" y="984.757" width="8.64329" height="8.64329" transform="rotate(-25.4354 453.503 984.757)" stroke="#00BBC1"/>
<rect x="0.475864" y="-0.523024" width="8.64329" height="8.64329" transform="matrix(0.998887 -0.0471601 -0.0471601 -0.998887 85.456 312.696)" stroke="#00BBC1"/>
<rect x="0.475864" y="-0.523024" width="8.64329" height="8.64329" transform="matrix(0.998887 -0.0471601 -0.0471601 -0.998887 1034.96 730.579)" stroke="#00BBC1"/>
<rect x="0.475864" y="-0.523024" width="8.64329" height="8.64329" transform="matrix(0.998887 -0.0471601 -0.0471601 -0.998887 1306.79 880.43)" stroke="#00BBC1"/>
<rect x="0.475864" y="-0.523024" width="8.64329" height="8.64329" transform="matrix(0.998887 -0.0471601 -0.0471601 -0.998887 728.08 619.048)" stroke="#00BBC1"/>
<rect x="1013.9" y="799.435" width="8.64329" height="8.64329" transform="rotate(163.392 1013.9 799.435)" stroke="#00BBC1"/>
<rect x="-0.389962" y="0.589856" width="8.64329" height="8.64329" transform="matrix(-0.979818 0.199893 0.199893 0.979818 717.571 239.876)" stroke="#00BBC1"/>
<rect x="-0.389962" y="0.589856" width="8.64329" height="8.64329" transform="matrix(-0.979818 0.199893 0.199893 0.979818 1024.91 210.552)" stroke="#00BBC1"/>
<rect x="-0.389962" y="0.589856" width="8.64329" height="8.64329" transform="matrix(-0.979818 0.199893 0.199893 0.979818 1124.73 402.421)" stroke="#00BBC1"/>
<rect x="-0.658316" y="0.25811" width="8.64329" height="8.64329" transform="matrix(-0.916425 -0.400206 -0.400206 0.916425 1157.02 288.086)" stroke="#00BBC1"/>
<rect x="-0.389962" y="0.589856" width="8.64329" height="8.64329" transform="matrix(-0.979818 0.199893 0.199893 0.979818 1021.15 579.599)" stroke="#00BBC1"/>
<rect x="705.79" y="695.94" width="8.64329" height="8.64329" transform="rotate(163.392 705.79 695.94)" stroke="#00BBC1"/>
<rect x="-0.389962" y="0.589856" width="8.64329" height="8.64329" transform="matrix(-0.979818 0.199893 0.199893 0.979818 494.684 476.446)" stroke="#00BBC1"/>
<rect x="-0.389962" y="0.589856" width="8.64329" height="8.64329" transform="matrix(-0.979818 0.199893 0.199893 0.979818 901.847 638.99)" stroke="#00BBC1"/>
<rect x="627.979" y="906.414" width="8.64329" height="8.64329" transform="rotate(12.6768 627.979 906.414)" stroke="#00BBC1"/>
<rect x="0.0515999" y="-0.705222" width="8.64329" height="8.64329" transform="matrix(0.756822 -0.653622 -0.653622 -0.756822 326.809 327.544)" stroke="#00BBC1"/>
<rect x="0.0515999" y="-0.705222" width="8.64329" height="8.64329" transform="matrix(0.756822 -0.653622 -0.653622 -0.756822 733.971 490.089)" stroke="#00BBC1"/>
<rect x="829.469" y="850.075" width="8.64329" height="8.64329" transform="rotate(-158.496 829.469 850.075)" stroke="#00BBC1"/>
<rect x="0.0572365" y="0.704787" width="8.64329" height="8.64329" transform="matrix(-0.64755 0.762023 0.762023 0.64755 531.055 282.2)" stroke="#00BBC1"/>
<rect x="0.0572365" y="0.704787" width="8.64329" height="8.64329" transform="matrix(-0.64755 0.762023 0.762023 0.64755 943.222 141.903)" stroke="#00BBC1"/>
<rect x="0.0572365" y="0.704787" width="8.64329" height="8.64329" transform="matrix(-0.64755 0.762023 0.762023 0.64755 938.218 444.745)" stroke="#00BBC1"/>
<rect x="0.0572365" y="0.704787" width="8.64329" height="8.64329" transform="matrix(-0.64755 0.762023 0.762023 0.64755 1210.05 645.89)" stroke="#00BBC1"/>
<rect x="0.0572365" y="0.704787" width="8.64329" height="8.64329" transform="matrix(-0.64755 0.762023 0.762023 0.64755 710.45 547.388)" stroke="#00BBC1"/>
<defs>
<linearGradient id="paint0_linear" x1="345.473" y1="1132.16" x2="978.022" y2="112.555" gradientUnits="userSpaceOnUse">
<stop stop-color="#40FF98"/>
<stop offset="1" stop-color="#3EF3FF"/>
</linearGradient>
</defs>
</svg>
