<svg width="76" height="31" viewBox="0 0 76 31" fill="none" xmlns="http://www.w3.org/2000/svg">
<path d="M2.14919 5.24782C1.89514 3.30017 3.56119 3.34183 4.90133 3.07791C6.24147 2.81398 16.3488 0.360789 16.3488 0.360789C19.3581 -0.162543 21.9114 1.08016 22.2569 4.04123C23.3942 13.7878 23.4425 27.0402 20.6905 28.5818C18.4265 32.0489 4.63832 31.1115 1.05076 25.2702C-0.14514 23.1366 4.2704 20.5787 4.90133 21.6826C7.94998 27.2479 17.5169 27.018 17.2858 23.1366C17.0548 19.2551 16.8018 7.21249 16.0081 6.06651C15.2144 4.92053 6.22447 7.42834 5.16596 7.47068C3.84284 7.52361 2.46677 7.6824 2.14919 5.24782Z" fill="#00BBC1"/>
<path fill-rule="evenodd" clip-rule="evenodd" d="M30.6704 29.2003C30.5584 22.9892 30.2003 10.3991 29.6631 9.72761C29.4975 9.52061 29.3168 9.34259 29.14 9.1684C28.5999 8.63628 28.0961 8.13989 28.1697 6.9623C28.2674 5.39921 28.9614 3.14994 30.5249 2.80882C31.7756 2.53592 32.6758 1.6528 32.9696 1.24536C33.6651 0.280533 43.165 0.36085 45.8468 2.80882C54.8882 11.8503 50.0891 27.2146 37.0765 27.2146C36.6005 27.2146 36.5889 27.756 36.6167 28.5818C36.7692 30.5248 33.7987 30.7645 31.9083 29.9679C31.9083 29.9679 30.6931 29.8497 30.6704 29.2003ZM35.136 5.9632C33.8223 10.1969 34.5886 17.1125 35.136 20.0411C35.1816 20.2702 35.2227 20.4852 35.2611 20.6865C35.5742 22.3265 35.7148 23.063 36.7784 23.1366C44.5774 23.676 49.2375 9.84201 42.2688 5.9632C40.0632 5.32254 35.5489 4.42562 35.136 5.9632Z" fill="#00BBC1"/>
<path d="M74.3529 4.75857C74.4671 4.01469 74.0719 4.03941 73.4296 4.31114C73.3332 4.35192 73.107 3.76896 72.7175 3.44542C66.6605 -1.58574 58.6077 1.09335 56.3588 5.36451C52.8686 11.9935 66.6829 18.74 67.8739 19.2415C70.4827 20.3399 70.1176 25.5671 63.9952 25.5671C59.999 25.5671 56.5827 22.9399 58.1185 21.4355C58.3307 19.8811 54.6566 21.1847 53.8417 22.9399C52.3764 27.9746 59.3506 30.0403 63.9952 30.4148C70.0348 30.6304 75.9793 27.3039 75.3324 22.4991C74.2028 14.1074 62.8513 12.5388 61.2137 8.89968C59.2421 4.51836 67.5503 2.86576 70.5792 7.30885C70.7104 7.50134 71.1219 7.82075 71.265 7.7987C72.8703 7.5513 74.1454 6.10905 74.3529 4.75857Z" fill="#00BBC1"/>
</svg>
