<svg width="19" height="19" viewBox="0 0 19 19" fill="none" xmlns="http://www.w3.org/2000/svg">
<path fill-rule="evenodd" clip-rule="evenodd" d="M17.5081 2.2546C16.973 1.71951 16.2558 1.4775 15.556 1.52859C14.8882 0.192693 13.1551 0.167204 11.8262 1.44839L7.97042 5.3042C7.47354 5.80107 8.19093 6.51847 8.68781 6.02159L12.5436 2.16578C13.3456 1.36383 14.2226 1.17437 14.6488 1.7713C14.4036 1.89002 14.1738 2.05112 13.9703 2.2546L9.07291 7.15201L12.6107 10.6898L17.5081 5.79236C18.485 4.81543 18.485 3.23153 17.5081 2.2546ZM7.96102 8.2639L3.36594 12.859C2.93892 13.286 2.69856 13.829 2.64484 14.3866L2.01023 17.0454L1.68472 17.3709C1.48945 17.5661 1.48945 17.8827 1.68472 18.078C1.87998 18.2732 2.19656 18.2732 2.39182 18.078L2.71731 17.7525L5.37647 17.1178C5.93392 17.064 6.47677 16.8237 6.90369 16.3967L11.4988 11.8017L7.96102 8.2639Z" fill="#3B4041"/>
</svg>
