<svg width="491" height="437" viewBox="0 0 491 437" fill="none" xmlns="http://www.w3.org/2000/svg">
<path d="M490.746 218.5C490.746 186 450.046 155.2 387.646 136.1C402.046 72.5 395.646 21.9 367.446 5.7C360.946 1.9 353.346 0.0999985 345.046 0.0999985V22.4C349.646 22.4 353.346 23.3 356.446 25C370.046 32.8 375.946 62.5 371.346 100.7C370.246 110.1 368.446 120 366.246 130.1C346.646 125.3 325.246 121.6 302.746 119.2C289.246 100.7 275.246 83.9 261.146 69.2C293.746 38.9 324.346 22.3 345.146 22.3V0C317.646 0 281.646 19.6 245.246 53.6C208.846 19.8 172.846 0.400002 145.346 0.400002V22.7C166.046 22.7 196.746 39.2 229.346 69.3C215.346 84 201.346 100.7 188.046 119.2C165.446 121.6 144.046 125.3 124.446 130.2C122.146 120.2 120.446 110.5 119.246 101.2C114.546 63 120.346 33.3 133.846 25.4C136.846 23.6 140.746 22.8 145.346 22.8V0.5C136.946 0.5 129.346 2.3 122.746 6.1C94.646 22.3 88.346 72.8 102.846 136.2C40.646 155.4 0.145996 186.1 0.145996 218.5C0.145996 251 40.846 281.8 103.246 300.9C88.846 364.5 95.246 415.1 123.446 431.3C129.946 435.1 137.546 436.9 145.946 436.9C173.446 436.9 209.446 417.3 245.846 383.3C282.246 417.1 318.246 436.5 345.746 436.5C354.146 436.5 361.746 434.7 368.346 430.9C396.446 414.7 402.746 364.2 388.246 300.8C450.246 281.7 490.746 250.9 490.746 218.5ZM360.546 151.8C356.846 164.7 352.246 178 347.046 191.3C342.946 183.3 338.646 175.3 333.946 167.3C329.346 159.3 324.446 151.5 319.546 143.9C333.746 146 347.446 148.6 360.546 151.8ZM314.746 258.3C306.946 271.8 298.946 284.6 290.646 296.5C275.746 297.8 260.646 298.5 245.446 298.5C230.346 298.5 215.246 297.8 200.446 296.6C192.146 284.7 184.046 272 176.246 258.6C168.646 245.5 161.746 232.2 155.446 218.8C161.646 205.4 168.646 192 176.146 178.9C183.946 165.4 191.946 152.6 200.246 140.7C215.146 139.4 230.246 138.7 245.446 138.7C260.546 138.7 275.646 139.4 290.446 140.6C298.746 152.5 306.846 165.2 314.646 178.6C322.246 191.7 329.146 205 335.446 218.4C329.146 231.8 322.246 245.2 314.746 258.3ZM347.046 245.3C352.446 258.7 357.046 272.1 360.846 285.1C347.746 288.3 333.946 291 319.646 293.1C324.546 285.4 329.446 277.5 334.046 269.4C338.646 261.4 342.946 253.3 347.046 245.3ZM245.646 352C236.346 342.4 227.046 331.7 217.846 320C226.846 320.4 236.046 320.7 245.346 320.7C254.746 320.7 264.046 320.5 273.146 320C264.146 331.7 254.846 342.4 245.646 352ZM171.246 293.1C157.046 291 143.346 288.4 130.246 285.2C133.946 272.3 138.546 259 143.746 245.7C147.846 253.7 152.146 261.7 156.846 269.7C161.546 277.7 166.346 285.5 171.246 293.1ZM245.146 85C254.446 94.6 263.746 105.3 272.946 117C263.946 116.6 254.746 116.3 245.446 116.3C236.046 116.3 226.746 116.5 217.646 117C226.646 105.3 235.946 94.6 245.146 85ZM171.146 143.9C166.246 151.6 161.346 159.5 156.746 167.6C152.146 175.6 147.846 183.6 143.746 191.6C138.346 178.2 133.746 164.8 129.946 151.8C143.046 148.7 156.846 146 171.146 143.9ZM80.646 269.1C45.246 254 22.346 234.2 22.346 218.5C22.346 202.8 45.246 182.9 80.646 167.9C89.246 164.2 98.646 160.9 108.346 157.8C114.046 177.4 121.546 197.8 130.846 218.7C121.646 239.5 114.246 259.8 108.646 279.3C98.746 276.2 89.346 272.8 80.646 269.1ZM134.446 412C120.846 404.2 114.946 374.5 119.546 336.3C120.646 326.9 122.446 317 124.646 306.9C144.246 311.7 165.646 315.4 188.146 317.8C201.646 336.3 215.646 353.1 229.746 367.8C197.146 398.1 166.546 414.7 145.746 414.7C141.246 414.6 137.446 413.7 134.446 412ZM371.646 335.8C376.346 374 370.546 403.7 357.046 411.6C354.046 413.4 350.146 414.2 345.546 414.2C324.846 414.2 294.146 397.7 261.546 367.6C275.546 352.9 289.546 336.2 302.846 317.7C325.446 315.3 346.846 311.6 366.446 306.7C368.746 316.8 370.546 326.5 371.646 335.8ZM410.146 269.1C401.546 272.8 392.146 276.1 382.446 279.2C376.746 259.6 369.246 239.2 359.946 218.3C369.146 197.5 376.546 177.2 382.146 157.7C392.046 160.8 401.446 164.2 410.246 167.9C445.646 183 468.546 202.8 468.546 218.5C468.446 234.2 445.546 254.1 410.146 269.1Z" fill="#61DAFB"/>
<path d="M245.346 264.2C270.585 264.2 291.046 243.739 291.046 218.5C291.046 193.261 270.585 172.8 245.346 172.8C220.107 172.8 199.646 193.261 199.646 218.5C199.646 243.739 220.107 264.2 245.346 264.2Z" fill="#61DAFB"/>
</svg>
