<svg width="71" height="90" viewBox="0 0 71 90" fill="none" xmlns="http://www.w3.org/2000/svg">
<path fill-rule="evenodd" clip-rule="evenodd" d="M51.9884 30.3662L54.9977 27.3569C55.0063 27.2658 55.0169 27.1713 55.0295 27.0729C55.138 26.2241 55.516 25.1269 55.7335 24.4955C55.827 24.2241 55.8908 24.0387 55.8908 23.9963C55.8766 23.8693 55.7353 23.2483 54.2809 23.2342C52.8264 23.2201 51.5694 23.5165 51.4281 23.8975C51.2869 24.2785 51.0045 25.1535 50.8209 26.0566C50.5667 27.3832 47.9117 32.0825 46.4006 34.5522C45.9063 33.5925 45.4826 32.7458 45.3977 32.0683C45.3755 31.8903 45.3524 31.7245 45.3302 31.5655C45.2258 30.8166 45.1425 30.2187 45.2708 29.2178C45.3794 28.369 45.7573 27.272 45.9748 26.6407C46.0684 26.3692 46.1322 26.1838 46.1322 26.1413C46.1181 26.0143 45.9769 25.3934 44.5224 25.3793C43.0677 25.3652 41.8109 25.6615 41.6697 26.0425C41.6113 26.2001 41.5504 26.4471 41.4772 26.7445C41.3734 27.166 41.2446 27.6887 41.0624 28.2017C40.7888 29.0086 37.7645 35.7453 36.5758 38.3929C36.4757 38.6161 36.3885 38.8102 36.3172 38.9693C35.8511 40.0136 35.4417 40.8462 35.145 41.4107C34.9378 41.8051 35.0132 41.669 35.0679 41.5705C35.0914 41.528 35.1111 41.4925 35.1026 41.5095C34.8484 41.9893 34.7072 42.2574 34.7072 42.2574V42.2717C34.5095 42.6245 34.2976 42.963 34.1987 42.963C34.128 42.963 33.9868 42.0175 34.2269 40.7193C34.5741 38.9095 35.2517 36.427 35.6633 34.9191C35.8712 34.1577 36.0112 33.6448 36.0065 33.5927C36.0065 33.5861 36.0085 33.5737 36.0114 33.5563C36.0398 33.3863 36.148 32.7386 35.1872 32.3931C34.3564 32.0861 33.9568 32.4389 33.7885 32.5874C33.748 32.6232 33.7208 32.6472 33.7044 32.6472C33.6196 32.6472 33.549 32.873 33.549 32.873C33.549 32.873 34.6929 28.0891 31.36 28.0891C29.2699 28.0891 26.389 30.3611 24.9626 32.4356C24.6875 32.586 24.3182 32.7873 23.8801 33.0261C22.8791 33.5718 21.5191 34.3131 20.1045 35.0887C19.7938 35.258 19.4786 35.4319 19.1634 35.6058C18.6906 35.8666 18.2177 36.1274 17.7602 36.3729L17.605 36.2033C16.358 34.8745 14.784 33.6654 13.2129 32.4585C9.69484 29.7561 6.1911 27.0646 6.40588 23.0649C6.51886 20.9622 7.25323 15.4161 20.7544 8.6987C31.8122 3.19495 40.667 4.70495 42.2062 8.06365C44.3952 12.8618 37.4752 21.7807 25.9797 23.0649C21.6017 23.5588 19.2996 21.8653 18.7208 21.2303C18.1135 20.567 18.0288 20.5388 17.8028 20.6658C17.4356 20.8634 17.6616 21.4561 17.8028 21.8089C18.1417 22.698 19.554 24.2785 21.9548 25.0688C24.0589 25.7603 29.1996 26.1413 35.4135 23.7423C42.3758 21.0468 47.8129 13.5674 46.2171 7.3157C44.593 0.951121 34.0295 -1.13748 24.0449 2.40467C18.0992 4.5215 11.6594 7.82374 7.02727 12.1562C1.51952 17.293 0.643935 21.7807 1.01112 23.6435C1.96836 28.5939 7.2966 32.2605 11.4709 35.1331C12.9014 36.1174 14.1964 37.0086 15.1335 37.8262C15.0284 37.8827 14.9278 37.9393 14.8319 37.9932C14.7604 38.0334 14.6915 38.0722 14.6251 38.1084C12.7892 39.0115 5.79862 42.6667 4.04744 46.5332C2.0703 50.908 4.35813 54.0552 5.88335 54.4785C10.6002 55.791 15.4301 53.4342 18.0427 49.5534C20.6411 45.6725 20.3306 40.6345 19.1302 38.3342L19.0877 38.2495L20.5282 37.4028C21.4604 36.8524 22.3783 36.3444 23.1832 35.9068C22.7314 37.1345 22.4064 38.5881 22.2371 40.7049C22.0394 43.1888 23.0562 46.4062 24.3978 47.6763C24.991 48.2266 25.6971 48.2408 26.1349 48.2408C27.6884 48.2408 28.3945 46.9565 29.1712 45.4184C30.1315 43.5415 30.9789 41.3682 30.9789 41.3682C30.9789 41.3682 29.9197 47.253 32.8148 47.253C33.874 47.253 34.9332 45.8841 35.4133 45.1785V45.1926C35.4133 45.1926 35.4416 45.1503 35.4981 45.0515C35.5573 44.9639 35.6138 44.8745 35.6675 44.7835V44.7553C36.0912 44.0214 37.0374 42.3421 38.4496 39.562C40.2713 35.9775 42.0226 31.4898 42.0226 31.4898C42.0226 31.4898 42.1921 32.5906 42.7146 34.3969C42.9297 35.1398 43.3209 35.9299 43.7147 36.7251C43.8895 37.0782 44.0649 37.4324 44.2256 37.7839C43.8019 38.3766 43.5477 38.7154 43.5477 38.7154L43.5618 38.7295C43.4969 38.816 43.4305 38.9035 43.3627 38.9919L50.4179 31.9366C51.2593 30.4167 51.7812 29.3309 51.7812 29.3309C51.7812 29.3309 51.8383 29.7018 51.9884 30.3662ZM8.46775 50.513C9.71053 51.2468 12.6339 50.386 14.7099 48.1139C16.8988 45.729 17.8027 42.709 16.8565 39.2656C16.7435 39.3362 16.6305 39.4067 16.5317 39.4632C16.5317 39.4632 16.4752 39.4916 16.3904 39.5479C16.1765 39.6773 15.9761 39.7977 15.7936 39.9073C15.5182 40.0728 15.2837 40.2137 15.1053 40.324C13.7778 41.1567 11.7583 42.5114 10.2048 43.9791C7.64851 46.3923 7.12612 49.7368 8.46775 50.513ZM29.4547 38.9176C29.6194 38.488 29.7674 38.1019 29.8915 37.798C30.3434 36.6972 32.1087 31.7862 31.7415 31.1087C31.4307 30.5865 30.188 31.0099 29.044 32.28C28.3378 33.0704 27.1374 35.1024 26.5725 36.8101C25.457 40.197 25.937 43.6263 26.728 43.838C27.4878 44.0482 28.6636 40.981 29.4547 38.9176Z" fill="#CF649A"/>
<path fill-rule="evenodd" clip-rule="evenodd" d="M27.0493 56.3674L29.5428 84.5287L47.8994 89.659L66.2495 84.532L70.3441 38.3567H45.06L35.6204 47.7964H47.8993H62.11L61.6034 53.4556L61.0872 59.256L59.5289 76.6443L47.8993 79.8603L47.8897 79.8635L36.2665 76.6443L35.4553 67.5509H41.1498L41.5731 72.2675L47.8929 73.9733L47.8961 73.9701L54.2255 72.2643L55.088 64.4055L35.1827 64.46L34.6184 59.0861L55.5658 58.8392L55.989 53.0869L34.0573 53.1478L33.8131 49.6037L27.0493 56.3674Z" fill="#2196F3"/>
<path d="M61.3169 19.6234V19.6234C62.879 21.1855 62.879 23.7182 61.3169 25.2803L9.6981 76.8991V76.8991C8.136 75.337 8.136 72.8043 9.6981 71.2422L61.3169 19.6234Z" fill="#00BBC1"/>
</svg>
