<svg width="822" height="325" viewBox="0 0 822 325" fill="none" xmlns="http://www.w3.org/2000/svg">
<g opacity="0.1">
<path d="M5.32673 2.66337C5.32673 4.13431 4.13431 5.32673 2.66337 5.32673C1.19243 5.32673 0 4.13431 0 2.66337C0 1.19243 1.19243 0 2.66337 0C4.13431 0 5.32673 1.19243 5.32673 2.66337Z" fill="black"/>
<path d="M40.8383 2.66337C40.8383 4.13431 39.6458 5.32673 38.1749 5.32673C36.704 5.32673 35.5115 4.13431 35.5115 2.66337C35.5115 1.19243 36.704 0 38.1749 0C39.6458 0 40.8383 1.19243 40.8383 2.66337Z" fill="black"/>
<path d="M5.32673 38.175C5.32673 39.6459 4.13431 40.8383 2.66337 40.8383C1.19243 40.8383 0 39.6459 0 38.175C0 36.7041 1.19243 35.5116 2.66337 35.5116C4.13431 35.5116 5.32673 36.7041 5.32673 38.175Z" fill="black"/>
<path d="M40.8383 38.175C40.8383 39.6459 39.6458 40.8383 38.1749 40.8383C36.704 40.8383 35.5115 39.6459 35.5115 38.175C35.5115 36.7041 36.704 35.5116 38.1749 35.5116C39.6458 35.5116 40.8383 36.7041 40.8383 38.175Z" fill="black"/>
<path d="M76.3498 2.66337C76.3498 4.13431 75.1574 5.32673 73.6865 5.32673C72.2156 5.32673 71.0231 4.13431 71.0231 2.66337C71.0231 1.19243 72.2156 0 73.6865 0C75.1574 0 76.3498 1.19243 76.3498 2.66337Z" fill="black"/>
<path d="M111.861 2.66337C111.861 4.13431 110.669 5.32673 109.198 5.32673C107.727 5.32673 106.535 4.13431 106.535 2.66337C106.535 1.19243 107.727 0 109.198 0C110.669 0 111.861 1.19243 111.861 2.66337Z" fill="black"/>
<path d="M76.3498 38.175C76.3498 39.6459 75.1574 40.8383 73.6865 40.8383C72.2156 40.8383 71.0231 39.6459 71.0231 38.175C71.0231 36.7041 72.2156 35.5116 73.6865 35.5116C75.1574 35.5116 76.3498 36.7041 76.3498 38.175Z" fill="black"/>
<path d="M111.861 38.175C111.861 39.6459 110.669 40.8383 109.198 40.8383C107.727 40.8383 106.535 39.6459 106.535 38.175C106.535 36.7041 107.727 35.5116 109.198 35.5116C110.669 35.5116 111.861 36.7041 111.861 38.175Z" fill="black"/>
<path d="M147.373 2.66337C147.373 4.13431 146.18 5.32673 144.71 5.32673C143.239 5.32673 142.046 4.13431 142.046 2.66337C142.046 1.19243 143.239 0 144.71 0C146.18 0 147.373 1.19243 147.373 2.66337Z" fill="black"/>
<path d="M182.884 2.66337C182.884 4.13431 181.691 5.32673 180.221 5.32673C178.751 5.32673 177.558 4.13431 177.558 2.66337C177.558 1.19243 178.751 0 180.221 0C181.691 0 182.884 1.19243 182.884 2.66337Z" fill="black"/>
<path d="M147.373 38.175C147.373 39.6459 146.18 40.8383 144.71 40.8383C143.239 40.8383 142.046 39.6459 142.046 38.175C142.046 36.7041 143.239 35.5116 144.71 35.5116C146.18 35.5116 147.373 36.7041 147.373 38.175Z" fill="black"/>
<path d="M182.884 38.175C182.884 39.6459 181.691 40.8383 180.221 40.8383C178.751 40.8383 177.558 39.6459 177.558 38.175C177.558 36.7041 178.751 35.5116 180.221 35.5116C181.691 35.5116 182.884 36.7041 182.884 38.175Z" fill="black"/>
<path d="M218.396 2.66337C218.396 4.13431 217.203 5.32673 215.733 5.32673C214.263 5.32673 213.069 4.13431 213.069 2.66337C213.069 1.19243 214.263 0 215.733 0C217.203 0 218.396 1.19243 218.396 2.66337Z" fill="black"/>
<path d="M253.908 2.66337C253.908 4.13431 252.714 5.32673 251.244 5.32673C249.774 5.32673 248.581 4.13431 248.581 2.66337C248.581 1.19243 249.774 0 251.244 0C252.714 0 253.908 1.19243 253.908 2.66337Z" fill="black"/>
<path d="M573.327 2.66337C573.327 4.13431 572.134 5.32673 570.663 5.32673C569.193 5.32673 568 4.13431 568 2.66337C568 1.19243 569.193 0 570.663 0C572.134 0 573.327 1.19243 573.327 2.66337Z" fill="black"/>
<path d="M218.396 38.175C218.396 39.6459 217.203 40.8383 215.733 40.8383C214.263 40.8383 213.069 39.6459 213.069 38.175C213.069 36.7041 214.263 35.5116 215.733 35.5116C217.203 35.5116 218.396 36.7041 218.396 38.175Z" fill="black"/>
<path d="M253.908 38.175C253.908 39.6459 252.714 40.8383 251.244 40.8383C249.774 40.8383 248.581 39.6459 248.581 38.175C248.581 36.7041 249.774 35.5116 251.244 35.5116C252.714 35.5116 253.908 36.7041 253.908 38.175Z" fill="black"/>
<path d="M573.327 38.175C573.327 39.6459 572.134 40.8383 570.663 40.8383C569.193 40.8383 568 39.6459 568 38.175C568 36.7041 569.193 35.5116 570.663 35.5116C572.134 35.5116 573.327 36.7041 573.327 38.175Z" fill="black"/>
<path d="M289.419 2.66337C289.419 4.13431 288.226 5.32673 286.756 5.32673C285.286 5.32673 284.092 4.13431 284.092 2.66337C284.092 1.19243 285.286 0 286.756 0C288.226 0 289.419 1.19243 289.419 2.66337Z" fill="black"/>
<path d="M608.838 2.66337C608.838 4.13431 607.645 5.32673 606.175 5.32673C604.705 5.32673 603.512 4.13431 603.512 2.66337C603.512 1.19243 604.705 0 606.175 0C607.645 0 608.838 1.19243 608.838 2.66337Z" fill="black"/>
<path d="M324.931 2.66337C324.931 4.13431 323.738 5.32673 322.267 5.32673C320.797 5.32673 319.604 4.13431 319.604 2.66337C319.604 1.19243 320.797 0 322.267 0C323.738 0 324.931 1.19243 324.931 2.66337Z" fill="black"/>
<path d="M644.35 2.66337C644.35 4.13431 643.157 5.32673 641.686 5.32673C640.216 5.32673 639.023 4.13431 639.023 2.66337C639.023 1.19243 640.216 0 641.686 0C643.157 0 644.35 1.19243 644.35 2.66337Z" fill="black"/>
<path d="M289.419 38.175C289.419 39.6459 288.226 40.8383 286.756 40.8383C285.286 40.8383 284.092 39.6459 284.092 38.175C284.092 36.7041 285.286 35.5116 286.756 35.5116C288.226 35.5116 289.419 36.7041 289.419 38.175Z" fill="black"/>
<path d="M608.838 38.175C608.838 39.6459 607.645 40.8383 606.175 40.8383C604.705 40.8383 603.512 39.6459 603.512 38.175C603.512 36.7041 604.705 35.5116 606.175 35.5116C607.645 35.5116 608.838 36.7041 608.838 38.175Z" fill="black"/>
<path d="M324.931 38.175C324.931 39.6459 323.738 40.8383 322.267 40.8383C320.797 40.8383 319.604 39.6459 319.604 38.175C319.604 36.7041 320.797 35.5116 322.267 35.5116C323.738 35.5116 324.931 36.7041 324.931 38.175Z" fill="black"/>
<path d="M644.35 38.175C644.35 39.6459 643.157 40.8383 641.686 40.8383C640.216 40.8383 639.023 39.6459 639.023 38.175C639.023 36.7041 640.216 35.5116 641.686 35.5116C643.157 35.5116 644.35 36.7041 644.35 38.175Z" fill="black"/>
<path d="M360.442 2.66337C360.442 4.13431 359.249 5.32673 357.779 5.32673C356.309 5.32673 355.115 4.13431 355.115 2.66337C355.115 1.19243 356.309 0 357.779 0C359.249 0 360.442 1.19243 360.442 2.66337Z" fill="black"/>
<path d="M679.861 2.66337C679.861 4.13431 678.668 5.32673 677.198 5.32673C675.728 5.32673 674.535 4.13431 674.535 2.66337C674.535 1.19243 675.728 0 677.198 0C678.668 0 679.861 1.19243 679.861 2.66337Z" fill="black"/>
<path d="M395.954 2.66337C395.954 4.13431 394.761 5.32673 393.29 5.32673C391.82 5.32673 390.627 4.13431 390.627 2.66337C390.627 1.19243 391.82 0 393.29 0C394.761 0 395.954 1.19243 395.954 2.66337Z" fill="black"/>
<path d="M715.373 2.66337C715.373 4.13431 714.18 5.32673 712.71 5.32673C711.239 5.32673 710.046 4.13431 710.046 2.66337C710.046 1.19243 711.239 0 712.71 0C714.18 0 715.373 1.19243 715.373 2.66337Z" fill="black"/>
<path d="M360.442 38.175C360.442 39.6459 359.249 40.8383 357.779 40.8383C356.309 40.8383 355.115 39.6459 355.115 38.175C355.115 36.7041 356.309 35.5116 357.779 35.5116C359.249 35.5116 360.442 36.7041 360.442 38.175Z" fill="black"/>
<path d="M679.861 38.175C679.861 39.6459 678.668 40.8383 677.198 40.8383C675.728 40.8383 674.535 39.6459 674.535 38.175C674.535 36.7041 675.728 35.5116 677.198 35.5116C678.668 35.5116 679.861 36.7041 679.861 38.175Z" fill="black"/>
<path d="M395.954 38.175C395.954 39.6459 394.761 40.8383 393.29 40.8383C391.82 40.8383 390.627 39.6459 390.627 38.175C390.627 36.7041 391.82 35.5116 393.29 35.5116C394.761 35.5116 395.954 36.7041 395.954 38.175Z" fill="black"/>
<path d="M715.373 38.175C715.373 39.6459 714.18 40.8383 712.71 40.8383C711.239 40.8383 710.046 39.6459 710.046 38.175C710.046 36.7041 711.239 35.5116 712.71 35.5116C714.18 35.5116 715.373 36.7041 715.373 38.175Z" fill="black"/>
<path d="M431.465 2.66337C431.465 4.13431 430.272 5.32673 428.802 5.32673C427.332 5.32673 426.139 4.13431 426.139 2.66337C426.139 1.19243 427.332 0 428.802 0C430.272 0 431.465 1.19243 431.465 2.66337Z" fill="black"/>
<path d="M750.884 2.66337C750.884 4.13431 749.691 5.32673 748.221 5.32673C746.751 5.32673 745.558 4.13431 745.558 2.66337C745.558 1.19243 746.751 0 748.221 0C749.691 0 750.884 1.19243 750.884 2.66337Z" fill="black"/>
<path d="M466.977 2.66337C466.977 4.13431 465.784 5.32673 464.314 5.32673C462.843 5.32673 461.65 4.13431 461.65 2.66337C461.65 1.19243 462.843 0 464.314 0C465.784 0 466.977 1.19243 466.977 2.66337Z" fill="black"/>
<path d="M786.396 2.66337C786.396 4.13431 785.203 5.32673 783.733 5.32673C782.263 5.32673 781.069 4.13431 781.069 2.66337C781.069 1.19243 782.263 0 783.733 0C785.203 0 786.396 1.19243 786.396 2.66337Z" fill="black"/>
<path d="M431.465 38.175C431.465 39.6459 430.272 40.8383 428.802 40.8383C427.332 40.8383 426.139 39.6459 426.139 38.175C426.139 36.7041 427.332 35.5116 428.802 35.5116C430.272 35.5116 431.465 36.7041 431.465 38.175Z" fill="black"/>
<path d="M750.884 38.175C750.884 39.6459 749.691 40.8383 748.221 40.8383C746.751 40.8383 745.558 39.6459 745.558 38.175C745.558 36.7041 746.751 35.5116 748.221 35.5116C749.691 35.5116 750.884 36.7041 750.884 38.175Z" fill="black"/>
<path d="M466.977 38.175C466.977 39.6459 465.784 40.8383 464.314 40.8383C462.843 40.8383 461.65 39.6459 461.65 38.175C461.65 36.7041 462.843 35.5116 464.314 35.5116C465.784 35.5116 466.977 36.7041 466.977 38.175Z" fill="black"/>
<path d="M786.396 38.175C786.396 39.6459 785.203 40.8383 783.733 40.8383C782.263 40.8383 781.069 39.6459 781.069 38.175C781.069 36.7041 782.263 35.5116 783.733 35.5116C785.203 35.5116 786.396 36.7041 786.396 38.175Z" fill="black"/>
<path d="M502.488 2.66337C502.488 4.13431 501.295 5.32673 499.825 5.32673C498.355 5.32673 497.162 4.13431 497.162 2.66337C497.162 1.19243 498.355 0 499.825 0C501.295 0 502.488 1.19243 502.488 2.66337Z" fill="black"/>
<path d="M821.908 2.66337C821.908 4.13431 820.714 5.32673 819.244 5.32673C817.774 5.32673 816.581 4.13431 816.581 2.66337C816.581 1.19243 817.774 0 819.244 0C820.714 0 821.908 1.19243 821.908 2.66337Z" fill="black"/>
<path d="M538 2.66337C538 4.13431 536.807 5.32673 535.337 5.32673C533.866 5.32673 532.673 4.13431 532.673 2.66337C532.673 1.19243 533.866 0 535.337 0C536.807 0 538 1.19243 538 2.66337Z" fill="black"/>
<path d="M502.488 38.175C502.488 39.6459 501.295 40.8383 499.825 40.8383C498.355 40.8383 497.162 39.6459 497.162 38.175C497.162 36.7041 498.355 35.5116 499.825 35.5116C501.295 35.5116 502.488 36.7041 502.488 38.175Z" fill="black"/>
<path d="M821.908 38.175C821.908 39.6459 820.714 40.8383 819.244 40.8383C817.774 40.8383 816.581 39.6459 816.581 38.175C816.581 36.7041 817.774 35.5116 819.244 35.5116C820.714 35.5116 821.908 36.7041 821.908 38.175Z" fill="black"/>
<path d="M538 38.175C538 39.6459 536.807 40.8383 535.337 40.8383C533.866 40.8383 532.673 39.6459 532.673 38.175C532.673 36.7041 533.866 35.5116 535.337 35.5116C536.807 35.5116 538 36.7041 538 38.175Z" fill="black"/>
<path d="M5.32673 73.6864C5.32673 75.1573 4.13431 76.3498 2.66337 76.3498C1.19243 76.3498 0 75.1573 0 73.6864C0 72.2155 1.19243 71.0231 2.66337 71.0231C4.13431 71.0231 5.32673 72.2155 5.32673 73.6864Z" fill="black"/>
<path d="M40.8383 73.6864C40.8383 75.1573 39.6458 76.3498 38.1749 76.3498C36.704 76.3498 35.5115 75.1573 35.5115 73.6864C35.5115 72.2155 36.704 71.0231 38.1749 71.0231C39.6458 71.0231 40.8383 72.2155 40.8383 73.6864Z" fill="black"/>
<path d="M5.32673 109.198C5.32673 110.669 4.13431 111.861 2.66337 111.861C1.19243 111.861 0 110.669 0 109.198C0 107.727 1.19243 106.535 2.66337 106.535C4.13431 106.535 5.32673 107.727 5.32673 109.198Z" fill="black"/>
<path d="M40.8383 109.198C40.8383 110.669 39.6458 111.861 38.1749 111.861C36.704 111.861 35.5115 110.669 35.5115 109.198C35.5115 107.727 36.704 106.535 38.1749 106.535C39.6458 106.535 40.8383 107.727 40.8383 109.198Z" fill="black"/>
<path d="M76.3498 73.6864C76.3498 75.1573 75.1574 76.3498 73.6865 76.3498C72.2156 76.3498 71.0231 75.1573 71.0231 73.6864C71.0231 72.2155 72.2156 71.0231 73.6865 71.0231C75.1574 71.0231 76.3498 72.2155 76.3498 73.6864Z" fill="black"/>
<path d="M111.861 73.6864C111.861 75.1573 110.669 76.3498 109.198 76.3498C107.727 76.3498 106.535 75.1573 106.535 73.6864C106.535 72.2155 107.727 71.0231 109.198 71.0231C110.669 71.0231 111.861 72.2155 111.861 73.6864Z" fill="black"/>
<path d="M76.3498 109.198C76.3498 110.669 75.1574 111.861 73.6865 111.861C72.2156 111.861 71.0231 110.669 71.0231 109.198C71.0231 107.727 72.2156 106.535 73.6865 106.535C75.1574 106.535 76.3498 107.727 76.3498 109.198Z" fill="black"/>
<path d="M111.861 109.198C111.861 110.669 110.669 111.861 109.198 111.861C107.727 111.861 106.535 110.669 106.535 109.198C106.535 107.727 107.727 106.535 109.198 106.535C110.669 106.535 111.861 107.727 111.861 109.198Z" fill="black"/>
<path d="M147.373 73.6864C147.373 75.1573 146.18 76.3498 144.71 76.3498C143.239 76.3498 142.046 75.1573 142.046 73.6864C142.046 72.2155 143.239 71.0231 144.71 71.0231C146.18 71.0231 147.373 72.2155 147.373 73.6864Z" fill="black"/>
<path d="M182.884 73.6864C182.884 75.1573 181.691 76.3498 180.221 76.3498C178.751 76.3498 177.558 75.1573 177.558 73.6864C177.558 72.2155 178.751 71.0231 180.221 71.0231C181.691 71.0231 182.884 72.2155 182.884 73.6864Z" fill="black"/>
<path d="M147.373 109.198C147.373 110.669 146.18 111.861 144.71 111.861C143.239 111.861 142.046 110.669 142.046 109.198C142.046 107.727 143.239 106.535 144.71 106.535C146.18 106.535 147.373 107.727 147.373 109.198Z" fill="black"/>
<path d="M182.884 109.198C182.884 110.669 181.691 111.861 180.221 111.861C178.751 111.861 177.558 110.669 177.558 109.198C177.558 107.727 178.751 106.535 180.221 106.535C181.691 106.535 182.884 107.727 182.884 109.198Z" fill="black"/>
<path d="M218.396 73.6864C218.396 75.1573 217.203 76.3498 215.733 76.3498C214.263 76.3498 213.069 75.1573 213.069 73.6864C213.069 72.2155 214.263 71.0231 215.733 71.0231C217.203 71.0231 218.396 72.2155 218.396 73.6864Z" fill="black"/>
<path d="M253.908 73.6864C253.908 75.1573 252.714 76.3498 251.244 76.3498C249.774 76.3498 248.581 75.1573 248.581 73.6864C248.581 72.2155 249.774 71.0231 251.244 71.0231C252.714 71.0231 253.908 72.2155 253.908 73.6864Z" fill="black"/>
<path d="M573.327 73.6864C573.327 75.1573 572.134 76.3498 570.663 76.3498C569.193 76.3498 568 75.1573 568 73.6864C568 72.2155 569.193 71.0231 570.663 71.0231C572.134 71.0231 573.327 72.2155 573.327 73.6864Z" fill="black"/>
<path d="M218.396 109.198C218.396 110.669 217.203 111.861 215.733 111.861C214.263 111.861 213.069 110.669 213.069 109.198C213.069 107.727 214.263 106.535 215.733 106.535C217.203 106.535 218.396 107.727 218.396 109.198Z" fill="black"/>
<path d="M253.908 109.198C253.908 110.669 252.714 111.861 251.244 111.861C249.774 111.861 248.581 110.669 248.581 109.198C248.581 107.727 249.774 106.535 251.244 106.535C252.714 106.535 253.908 107.727 253.908 109.198Z" fill="black"/>
<path d="M573.327 109.198C573.327 110.669 572.134 111.861 570.663 111.861C569.193 111.861 568 110.669 568 109.198C568 107.727 569.193 106.535 570.663 106.535C572.134 106.535 573.327 107.727 573.327 109.198Z" fill="black"/>
<path d="M289.419 73.6864C289.419 75.1573 288.226 76.3498 286.756 76.3498C285.286 76.3498 284.092 75.1573 284.092 73.6864C284.092 72.2155 285.286 71.0231 286.756 71.0231C288.226 71.0231 289.419 72.2155 289.419 73.6864Z" fill="black"/>
<path d="M608.838 73.6864C608.838 75.1573 607.645 76.3498 606.175 76.3498C604.705 76.3498 603.512 75.1573 603.512 73.6864C603.512 72.2155 604.705 71.0231 606.175 71.0231C607.645 71.0231 608.838 72.2155 608.838 73.6864Z" fill="black"/>
<path d="M324.931 73.6864C324.931 75.1573 323.738 76.3498 322.267 76.3498C320.797 76.3498 319.604 75.1573 319.604 73.6864C319.604 72.2155 320.797 71.0231 322.267 71.0231C323.738 71.0231 324.931 72.2155 324.931 73.6864Z" fill="black"/>
<path d="M644.35 73.6864C644.35 75.1573 643.157 76.3498 641.686 76.3498C640.216 76.3498 639.023 75.1573 639.023 73.6864C639.023 72.2155 640.216 71.0231 641.686 71.0231C643.157 71.0231 644.35 72.2155 644.35 73.6864Z" fill="black"/>
<path d="M289.419 109.198C289.419 110.669 288.226 111.861 286.756 111.861C285.286 111.861 284.092 110.669 284.092 109.198C284.092 107.727 285.286 106.535 286.756 106.535C288.226 106.535 289.419 107.727 289.419 109.198Z" fill="black"/>
<path d="M608.838 109.198C608.838 110.669 607.645 111.861 606.175 111.861C604.705 111.861 603.512 110.669 603.512 109.198C603.512 107.727 604.705 106.535 606.175 106.535C607.645 106.535 608.838 107.727 608.838 109.198Z" fill="black"/>
<path d="M324.931 109.198C324.931 110.669 323.738 111.861 322.267 111.861C320.797 111.861 319.604 110.669 319.604 109.198C319.604 107.727 320.797 106.535 322.267 106.535C323.738 106.535 324.931 107.727 324.931 109.198Z" fill="black"/>
<path d="M644.35 109.198C644.35 110.669 643.157 111.861 641.686 111.861C640.216 111.861 639.023 110.669 639.023 109.198C639.023 107.727 640.216 106.535 641.686 106.535C643.157 106.535 644.35 107.727 644.35 109.198Z" fill="black"/>
<path d="M360.442 73.6864C360.442 75.1573 359.249 76.3498 357.779 76.3498C356.309 76.3498 355.115 75.1573 355.115 73.6864C355.115 72.2155 356.309 71.0231 357.779 71.0231C359.249 71.0231 360.442 72.2155 360.442 73.6864Z" fill="black"/>
<path d="M679.861 73.6864C679.861 75.1573 678.668 76.3498 677.198 76.3498C675.728 76.3498 674.535 75.1573 674.535 73.6864C674.535 72.2155 675.728 71.0231 677.198 71.0231C678.668 71.0231 679.861 72.2155 679.861 73.6864Z" fill="black"/>
<path d="M395.954 73.6864C395.954 75.1573 394.761 76.3498 393.29 76.3498C391.82 76.3498 390.627 75.1573 390.627 73.6864C390.627 72.2155 391.82 71.0231 393.29 71.0231C394.761 71.0231 395.954 72.2155 395.954 73.6864Z" fill="black"/>
<path d="M715.373 73.6864C715.373 75.1573 714.18 76.3498 712.71 76.3498C711.239 76.3498 710.046 75.1573 710.046 73.6864C710.046 72.2155 711.239 71.0231 712.71 71.0231C714.18 71.0231 715.373 72.2155 715.373 73.6864Z" fill="black"/>
<path d="M360.442 109.198C360.442 110.669 359.249 111.861 357.779 111.861C356.309 111.861 355.115 110.669 355.115 109.198C355.115 107.727 356.309 106.535 357.779 106.535C359.249 106.535 360.442 107.727 360.442 109.198Z" fill="black"/>
<path d="M679.861 109.198C679.861 110.669 678.668 111.861 677.198 111.861C675.728 111.861 674.535 110.669 674.535 109.198C674.535 107.727 675.728 106.535 677.198 106.535C678.668 106.535 679.861 107.727 679.861 109.198Z" fill="black"/>
<path d="M395.954 109.198C395.954 110.669 394.761 111.861 393.29 111.861C391.82 111.861 390.627 110.669 390.627 109.198C390.627 107.727 391.82 106.535 393.29 106.535C394.761 106.535 395.954 107.727 395.954 109.198Z" fill="black"/>
<path d="M715.373 109.198C715.373 110.669 714.18 111.861 712.71 111.861C711.239 111.861 710.046 110.669 710.046 109.198C710.046 107.727 711.239 106.535 712.71 106.535C714.18 106.535 715.373 107.727 715.373 109.198Z" fill="black"/>
<path d="M431.465 73.6864C431.465 75.1573 430.272 76.3498 428.802 76.3498C427.332 76.3498 426.139 75.1573 426.139 73.6864C426.139 72.2155 427.332 71.0231 428.802 71.0231C430.272 71.0231 431.465 72.2155 431.465 73.6864Z" fill="black"/>
<path d="M750.884 73.6864C750.884 75.1573 749.691 76.3498 748.221 76.3498C746.751 76.3498 745.558 75.1573 745.558 73.6864C745.558 72.2155 746.751 71.0231 748.221 71.0231C749.691 71.0231 750.884 72.2155 750.884 73.6864Z" fill="black"/>
<path d="M466.977 73.6864C466.977 75.1573 465.784 76.3498 464.314 76.3498C462.843 76.3498 461.65 75.1573 461.65 73.6864C461.65 72.2155 462.843 71.0231 464.314 71.0231C465.784 71.0231 466.977 72.2155 466.977 73.6864Z" fill="black"/>
<path d="M786.396 73.6864C786.396 75.1573 785.203 76.3498 783.733 76.3498C782.263 76.3498 781.069 75.1573 781.069 73.6864C781.069 72.2155 782.263 71.0231 783.733 71.0231C785.203 71.0231 786.396 72.2155 786.396 73.6864Z" fill="black"/>
<path d="M431.465 109.198C431.465 110.669 430.272 111.861 428.802 111.861C427.332 111.861 426.139 110.669 426.139 109.198C426.139 107.727 427.332 106.535 428.802 106.535C430.272 106.535 431.465 107.727 431.465 109.198Z" fill="black"/>
<path d="M750.884 109.198C750.884 110.669 749.691 111.861 748.221 111.861C746.751 111.861 745.558 110.669 745.558 109.198C745.558 107.727 746.751 106.535 748.221 106.535C749.691 106.535 750.884 107.727 750.884 109.198Z" fill="black"/>
<path d="M466.977 109.198C466.977 110.669 465.784 111.861 464.314 111.861C462.843 111.861 461.65 110.669 461.65 109.198C461.65 107.727 462.843 106.535 464.314 106.535C465.784 106.535 466.977 107.727 466.977 109.198Z" fill="black"/>
<path d="M786.396 109.198C786.396 110.669 785.203 111.861 783.733 111.861C782.263 111.861 781.069 110.669 781.069 109.198C781.069 107.727 782.263 106.535 783.733 106.535C785.203 106.535 786.396 107.727 786.396 109.198Z" fill="black"/>
<path d="M502.488 73.6864C502.488 75.1573 501.295 76.3498 499.825 76.3498C498.355 76.3498 497.162 75.1573 497.162 73.6864C497.162 72.2155 498.355 71.0231 499.825 71.0231C501.295 71.0231 502.488 72.2155 502.488 73.6864Z" fill="black"/>
<path d="M821.908 73.6864C821.908 75.1573 820.714 76.3498 819.244 76.3498C817.774 76.3498 816.581 75.1573 816.581 73.6864C816.581 72.2155 817.774 71.0231 819.244 71.0231C820.714 71.0231 821.908 72.2155 821.908 73.6864Z" fill="black"/>
<path d="M538 73.6864C538 75.1573 536.807 76.3498 535.337 76.3498C533.866 76.3498 532.673 75.1573 532.673 73.6864C532.673 72.2155 533.866 71.0231 535.337 71.0231C536.807 71.0231 538 72.2155 538 73.6864Z" fill="black"/>
<path d="M502.488 109.198C502.488 110.669 501.295 111.861 499.825 111.861C498.355 111.861 497.162 110.669 497.162 109.198C497.162 107.727 498.355 106.535 499.825 106.535C501.295 106.535 502.488 107.727 502.488 109.198Z" fill="black"/>
<path d="M821.908 109.198C821.908 110.669 820.714 111.861 819.244 111.861C817.774 111.861 816.581 110.669 816.581 109.198C816.581 107.727 817.774 106.535 819.244 106.535C820.714 106.535 821.908 107.727 821.908 109.198Z" fill="black"/>
<path d="M538 109.198C538 110.669 536.807 111.861 535.337 111.861C533.866 111.861 532.673 110.669 532.673 109.198C532.673 107.727 533.866 106.535 535.337 106.535C536.807 106.535 538 107.727 538 109.198Z" fill="black"/>
<path d="M5.32673 144.71C5.32673 146.18 4.13431 147.373 2.66337 147.373C1.19243 147.373 0 146.18 0 144.71C0 143.239 1.19243 142.046 2.66337 142.046C4.13431 142.046 5.32673 143.239 5.32673 144.71Z" fill="black"/>
<path d="M40.8383 144.71C40.8383 146.18 39.6458 147.373 38.1749 147.373C36.704 147.373 35.5115 146.18 35.5115 144.71C35.5115 143.239 36.704 142.046 38.1749 142.046C39.6458 142.046 40.8383 143.239 40.8383 144.71Z" fill="black"/>
<path d="M5.32673 180.221C5.32673 181.691 4.13431 182.884 2.66337 182.884C1.19243 182.884 0 181.691 0 180.221C0 178.751 1.19243 177.558 2.66337 177.558C4.13431 177.558 5.32673 178.751 5.32673 180.221Z" fill="black"/>
<path d="M40.8383 180.221C40.8383 181.691 39.6458 182.884 38.1749 182.884C36.704 182.884 35.5115 181.691 35.5115 180.221C35.5115 178.751 36.704 177.558 38.1749 177.558C39.6458 177.558 40.8383 178.751 40.8383 180.221Z" fill="black"/>
<path d="M76.3498 144.71C76.3498 146.18 75.1574 147.373 73.6865 147.373C72.2156 147.373 71.0231 146.18 71.0231 144.71C71.0231 143.239 72.2156 142.046 73.6865 142.046C75.1574 142.046 76.3498 143.239 76.3498 144.71Z" fill="black"/>
<path d="M111.861 144.71C111.861 146.18 110.669 147.373 109.198 147.373C107.727 147.373 106.535 146.18 106.535 144.71C106.535 143.239 107.727 142.046 109.198 142.046C110.669 142.046 111.861 143.239 111.861 144.71Z" fill="black"/>
<path d="M76.3498 180.221C76.3498 181.691 75.1574 182.884 73.6865 182.884C72.2156 182.884 71.0231 181.691 71.0231 180.221C71.0231 178.751 72.2156 177.558 73.6865 177.558C75.1574 177.558 76.3498 178.751 76.3498 180.221Z" fill="black"/>
<path d="M111.861 180.221C111.861 181.691 110.669 182.884 109.198 182.884C107.727 182.884 106.535 181.691 106.535 180.221C106.535 178.751 107.727 177.558 109.198 177.558C110.669 177.558 111.861 178.751 111.861 180.221Z" fill="black"/>
<path d="M147.373 144.71C147.373 146.18 146.18 147.373 144.71 147.373C143.239 147.373 142.046 146.18 142.046 144.71C142.046 143.239 143.239 142.046 144.71 142.046C146.18 142.046 147.373 143.239 147.373 144.71Z" fill="black"/>
<path d="M182.884 144.71C182.884 146.18 181.691 147.373 180.221 147.373C178.751 147.373 177.558 146.18 177.558 144.71C177.558 143.239 178.751 142.046 180.221 142.046C181.691 142.046 182.884 143.239 182.884 144.71Z" fill="black"/>
<path d="M147.373 180.221C147.373 181.691 146.18 182.884 144.71 182.884C143.239 182.884 142.046 181.691 142.046 180.221C142.046 178.751 143.239 177.558 144.71 177.558C146.18 177.558 147.373 178.751 147.373 180.221Z" fill="black"/>
<path d="M182.884 180.221C182.884 181.691 181.691 182.884 180.221 182.884C178.751 182.884 177.558 181.691 177.558 180.221C177.558 178.751 178.751 177.558 180.221 177.558C181.691 177.558 182.884 178.751 182.884 180.221Z" fill="black"/>
<path d="M218.396 144.71C218.396 146.18 217.203 147.373 215.733 147.373C214.263 147.373 213.069 146.18 213.069 144.71C213.069 143.239 214.263 142.046 215.733 142.046C217.203 142.046 218.396 143.239 218.396 144.71Z" fill="black"/>
<path d="M253.908 144.71C253.908 146.18 252.714 147.373 251.244 147.373C249.774 147.373 248.581 146.18 248.581 144.71C248.581 143.239 249.774 142.046 251.244 142.046C252.714 142.046 253.908 143.239 253.908 144.71Z" fill="black"/>
<path d="M573.327 144.71C573.327 146.18 572.134 147.373 570.663 147.373C569.193 147.373 568 146.18 568 144.71C568 143.239 569.193 142.046 570.663 142.046C572.134 142.046 573.327 143.239 573.327 144.71Z" fill="black"/>
<path d="M218.396 180.221C218.396 181.691 217.203 182.884 215.733 182.884C214.263 182.884 213.069 181.691 213.069 180.221C213.069 178.751 214.263 177.558 215.733 177.558C217.203 177.558 218.396 178.751 218.396 180.221Z" fill="black"/>
<path d="M253.908 180.221C253.908 181.691 252.714 182.884 251.244 182.884C249.774 182.884 248.581 181.691 248.581 180.221C248.581 178.751 249.774 177.558 251.244 177.558C252.714 177.558 253.908 178.751 253.908 180.221Z" fill="black"/>
<path d="M573.327 180.221C573.327 181.691 572.134 182.884 570.663 182.884C569.193 182.884 568 181.691 568 180.221C568 178.751 569.193 177.558 570.663 177.558C572.134 177.558 573.327 178.751 573.327 180.221Z" fill="black"/>
<path d="M289.419 144.71C289.419 146.18 288.226 147.373 286.756 147.373C285.286 147.373 284.092 146.18 284.092 144.71C284.092 143.239 285.286 142.046 286.756 142.046C288.226 142.046 289.419 143.239 289.419 144.71Z" fill="black"/>
<path d="M608.838 144.71C608.838 146.18 607.645 147.373 606.175 147.373C604.705 147.373 603.512 146.18 603.512 144.71C603.512 143.239 604.705 142.046 606.175 142.046C607.645 142.046 608.838 143.239 608.838 144.71Z" fill="black"/>
<path d="M324.931 144.71C324.931 146.18 323.738 147.373 322.267 147.373C320.797 147.373 319.604 146.18 319.604 144.71C319.604 143.239 320.797 142.046 322.267 142.046C323.738 142.046 324.931 143.239 324.931 144.71Z" fill="black"/>
<path d="M644.35 144.71C644.35 146.18 643.157 147.373 641.686 147.373C640.216 147.373 639.023 146.18 639.023 144.71C639.023 143.239 640.216 142.046 641.686 142.046C643.157 142.046 644.35 143.239 644.35 144.71Z" fill="black"/>
<path d="M289.419 180.221C289.419 181.691 288.226 182.884 286.756 182.884C285.286 182.884 284.092 181.691 284.092 180.221C284.092 178.751 285.286 177.558 286.756 177.558C288.226 177.558 289.419 178.751 289.419 180.221Z" fill="black"/>
<path d="M608.838 180.221C608.838 181.691 607.645 182.884 606.175 182.884C604.705 182.884 603.512 181.691 603.512 180.221C603.512 178.751 604.705 177.558 606.175 177.558C607.645 177.558 608.838 178.751 608.838 180.221Z" fill="black"/>
<path d="M324.931 180.221C324.931 181.691 323.738 182.884 322.267 182.884C320.797 182.884 319.604 181.691 319.604 180.221C319.604 178.751 320.797 177.558 322.267 177.558C323.738 177.558 324.931 178.751 324.931 180.221Z" fill="black"/>
<path d="M644.35 180.221C644.35 181.691 643.157 182.884 641.686 182.884C640.216 182.884 639.023 181.691 639.023 180.221C639.023 178.751 640.216 177.558 641.686 177.558C643.157 177.558 644.35 178.751 644.35 180.221Z" fill="black"/>
<path d="M360.442 144.71C360.442 146.18 359.249 147.373 357.779 147.373C356.309 147.373 355.115 146.18 355.115 144.71C355.115 143.239 356.309 142.046 357.779 142.046C359.249 142.046 360.442 143.239 360.442 144.71Z" fill="black"/>
<path d="M679.861 144.71C679.861 146.18 678.668 147.373 677.198 147.373C675.728 147.373 674.535 146.18 674.535 144.71C674.535 143.239 675.728 142.046 677.198 142.046C678.668 142.046 679.861 143.239 679.861 144.71Z" fill="black"/>
<path d="M395.954 144.71C395.954 146.18 394.761 147.373 393.29 147.373C391.82 147.373 390.627 146.18 390.627 144.71C390.627 143.239 391.82 142.046 393.29 142.046C394.761 142.046 395.954 143.239 395.954 144.71Z" fill="black"/>
<path d="M715.373 144.71C715.373 146.18 714.18 147.373 712.71 147.373C711.239 147.373 710.046 146.18 710.046 144.71C710.046 143.239 711.239 142.046 712.71 142.046C714.18 142.046 715.373 143.239 715.373 144.71Z" fill="black"/>
<path d="M360.442 180.221C360.442 181.691 359.249 182.884 357.779 182.884C356.309 182.884 355.115 181.691 355.115 180.221C355.115 178.751 356.309 177.558 357.779 177.558C359.249 177.558 360.442 178.751 360.442 180.221Z" fill="black"/>
<path d="M679.861 180.221C679.861 181.691 678.668 182.884 677.198 182.884C675.728 182.884 674.535 181.691 674.535 180.221C674.535 178.751 675.728 177.558 677.198 177.558C678.668 177.558 679.861 178.751 679.861 180.221Z" fill="black"/>
<path d="M395.954 180.221C395.954 181.691 394.761 182.884 393.29 182.884C391.82 182.884 390.627 181.691 390.627 180.221C390.627 178.751 391.82 177.558 393.29 177.558C394.761 177.558 395.954 178.751 395.954 180.221Z" fill="black"/>
<path d="M715.373 180.221C715.373 181.691 714.18 182.884 712.71 182.884C711.239 182.884 710.046 181.691 710.046 180.221C710.046 178.751 711.239 177.558 712.71 177.558C714.18 177.558 715.373 178.751 715.373 180.221Z" fill="black"/>
<path d="M431.465 144.71C431.465 146.18 430.272 147.373 428.802 147.373C427.332 147.373 426.139 146.18 426.139 144.71C426.139 143.239 427.332 142.046 428.802 142.046C430.272 142.046 431.465 143.239 431.465 144.71Z" fill="black"/>
<path d="M750.884 144.71C750.884 146.18 749.691 147.373 748.221 147.373C746.751 147.373 745.558 146.18 745.558 144.71C745.558 143.239 746.751 142.046 748.221 142.046C749.691 142.046 750.884 143.239 750.884 144.71Z" fill="black"/>
<path d="M466.977 144.71C466.977 146.18 465.784 147.373 464.314 147.373C462.843 147.373 461.65 146.18 461.65 144.71C461.65 143.239 462.843 142.046 464.314 142.046C465.784 142.046 466.977 143.239 466.977 144.71Z" fill="black"/>
<path d="M786.396 144.71C786.396 146.18 785.203 147.373 783.733 147.373C782.263 147.373 781.069 146.18 781.069 144.71C781.069 143.239 782.263 142.046 783.733 142.046C785.203 142.046 786.396 143.239 786.396 144.71Z" fill="black"/>
<path d="M431.465 180.221C431.465 181.691 430.272 182.884 428.802 182.884C427.332 182.884 426.139 181.691 426.139 180.221C426.139 178.751 427.332 177.558 428.802 177.558C430.272 177.558 431.465 178.751 431.465 180.221Z" fill="black"/>
<path d="M750.884 180.221C750.884 181.691 749.691 182.884 748.221 182.884C746.751 182.884 745.558 181.691 745.558 180.221C745.558 178.751 746.751 177.558 748.221 177.558C749.691 177.558 750.884 178.751 750.884 180.221Z" fill="black"/>
<path d="M466.977 180.221C466.977 181.691 465.784 182.884 464.314 182.884C462.843 182.884 461.65 181.691 461.65 180.221C461.65 178.751 462.843 177.558 464.314 177.558C465.784 177.558 466.977 178.751 466.977 180.221Z" fill="black"/>
<path d="M786.396 180.221C786.396 181.691 785.203 182.884 783.733 182.884C782.263 182.884 781.069 181.691 781.069 180.221C781.069 178.751 782.263 177.558 783.733 177.558C785.203 177.558 786.396 178.751 786.396 180.221Z" fill="black"/>
<path d="M502.488 144.71C502.488 146.18 501.295 147.373 499.825 147.373C498.355 147.373 497.162 146.18 497.162 144.71C497.162 143.239 498.355 142.046 499.825 142.046C501.295 142.046 502.488 143.239 502.488 144.71Z" fill="black"/>
<path d="M821.908 144.71C821.908 146.18 820.714 147.373 819.244 147.373C817.774 147.373 816.581 146.18 816.581 144.71C816.581 143.239 817.774 142.046 819.244 142.046C820.714 142.046 821.908 143.239 821.908 144.71Z" fill="black"/>
<path d="M538 144.71C538 146.18 536.807 147.373 535.337 147.373C533.866 147.373 532.673 146.18 532.673 144.71C532.673 143.239 533.866 142.046 535.337 142.046C536.807 142.046 538 143.239 538 144.71Z" fill="black"/>
<path d="M502.488 180.221C502.488 181.691 501.295 182.884 499.825 182.884C498.355 182.884 497.162 181.691 497.162 180.221C497.162 178.751 498.355 177.558 499.825 177.558C501.295 177.558 502.488 178.751 502.488 180.221Z" fill="black"/>
<path d="M821.908 180.221C821.908 181.691 820.714 182.884 819.244 182.884C817.774 182.884 816.581 181.691 816.581 180.221C816.581 178.751 817.774 177.558 819.244 177.558C820.714 177.558 821.908 178.751 821.908 180.221Z" fill="black"/>
<path d="M538 180.221C538 181.691 536.807 182.884 535.337 182.884C533.866 182.884 532.673 181.691 532.673 180.221C532.673 178.751 533.866 177.558 535.337 177.558C536.807 177.558 538 178.751 538 180.221Z" fill="black"/>
<path d="M5.32673 215.733C5.32673 217.203 4.13431 218.396 2.66337 218.396C1.19243 218.396 0 217.203 0 215.733C0 214.263 1.19243 213.069 2.66337 213.069C4.13431 213.069 5.32673 214.263 5.32673 215.733Z" fill="black"/>
<path d="M40.8383 215.733C40.8383 217.203 39.6458 218.396 38.1749 218.396C36.704 218.396 35.5115 217.203 35.5115 215.733C35.5115 214.263 36.704 213.069 38.1749 213.069C39.6458 213.069 40.8383 214.263 40.8383 215.733Z" fill="black"/>
<path d="M5.32673 251.244C5.32673 252.714 4.13431 253.908 2.66337 253.908C1.19243 253.908 0 252.714 0 251.244C0 249.774 1.19243 248.581 2.66337 248.581C4.13431 248.581 5.32673 249.774 5.32673 251.244Z" fill="black"/>
<path d="M40.8383 251.244C40.8383 252.714 39.6458 253.908 38.1749 253.908C36.704 253.908 35.5115 252.714 35.5115 251.244C35.5115 249.774 36.704 248.581 38.1749 248.581C39.6458 248.581 40.8383 249.774 40.8383 251.244Z" fill="black"/>
<path d="M76.3498 215.733C76.3498 217.203 75.1574 218.396 73.6865 218.396C72.2156 218.396 71.0231 217.203 71.0231 215.733C71.0231 214.263 72.2156 213.069 73.6865 213.069C75.1574 213.069 76.3498 214.263 76.3498 215.733Z" fill="black"/>
<path d="M111.861 215.733C111.861 217.203 110.669 218.396 109.198 218.396C107.727 218.396 106.535 217.203 106.535 215.733C106.535 214.263 107.727 213.069 109.198 213.069C110.669 213.069 111.861 214.263 111.861 215.733Z" fill="black"/>
<path d="M76.3498 251.244C76.3498 252.714 75.1574 253.908 73.6865 253.908C72.2156 253.908 71.0231 252.714 71.0231 251.244C71.0231 249.774 72.2156 248.581 73.6865 248.581C75.1574 248.581 76.3498 249.774 76.3498 251.244Z" fill="black"/>
<path d="M111.861 251.244C111.861 252.714 110.669 253.908 109.198 253.908C107.727 253.908 106.535 252.714 106.535 251.244C106.535 249.774 107.727 248.581 109.198 248.581C110.669 248.581 111.861 249.774 111.861 251.244Z" fill="black"/>
<path d="M147.373 215.733C147.373 217.203 146.18 218.396 144.71 218.396C143.239 218.396 142.046 217.203 142.046 215.733C142.046 214.263 143.239 213.069 144.71 213.069C146.18 213.069 147.373 214.263 147.373 215.733Z" fill="black"/>
<path d="M182.884 215.733C182.884 217.203 181.691 218.396 180.221 218.396C178.751 218.396 177.558 217.203 177.558 215.733C177.558 214.263 178.751 213.069 180.221 213.069C181.691 213.069 182.884 214.263 182.884 215.733Z" fill="black"/>
<path d="M147.373 251.244C147.373 252.714 146.18 253.908 144.71 253.908C143.239 253.908 142.046 252.714 142.046 251.244C142.046 249.774 143.239 248.581 144.71 248.581C146.18 248.581 147.373 249.774 147.373 251.244Z" fill="black"/>
<path d="M182.884 251.244C182.884 252.714 181.691 253.908 180.221 253.908C178.751 253.908 177.558 252.714 177.558 251.244C177.558 249.774 178.751 248.581 180.221 248.581C181.691 248.581 182.884 249.774 182.884 251.244Z" fill="black"/>
<path d="M218.396 215.733C218.396 217.203 217.203 218.396 215.733 218.396C214.263 218.396 213.069 217.203 213.069 215.733C213.069 214.263 214.263 213.069 215.733 213.069C217.203 213.069 218.396 214.263 218.396 215.733Z" fill="black"/>
<path d="M253.908 215.733C253.908 217.203 252.714 218.396 251.244 218.396C249.774 218.396 248.581 217.203 248.581 215.733C248.581 214.263 249.774 213.069 251.244 213.069C252.714 213.069 253.908 214.263 253.908 215.733Z" fill="black"/>
<path d="M573.327 215.733C573.327 217.203 572.134 218.396 570.663 218.396C569.193 218.396 568 217.203 568 215.733C568 214.263 569.193 213.069 570.663 213.069C572.134 213.069 573.327 214.263 573.327 215.733Z" fill="black"/>
<path d="M218.396 251.244C218.396 252.714 217.203 253.908 215.733 253.908C214.263 253.908 213.069 252.714 213.069 251.244C213.069 249.774 214.263 248.581 215.733 248.581C217.203 248.581 218.396 249.774 218.396 251.244Z" fill="black"/>
<path d="M253.908 251.244C253.908 252.714 252.714 253.908 251.244 253.908C249.774 253.908 248.581 252.714 248.581 251.244C248.581 249.774 249.774 248.581 251.244 248.581C252.714 248.581 253.908 249.774 253.908 251.244Z" fill="black"/>
<path d="M573.327 251.244C573.327 252.714 572.134 253.908 570.663 253.908C569.193 253.908 568 252.714 568 251.244C568 249.774 569.193 248.581 570.663 248.581C572.134 248.581 573.327 249.774 573.327 251.244Z" fill="black"/>
<path d="M289.419 215.733C289.419 217.203 288.226 218.396 286.756 218.396C285.286 218.396 284.092 217.203 284.092 215.733C284.092 214.263 285.286 213.069 286.756 213.069C288.226 213.069 289.419 214.263 289.419 215.733Z" fill="black"/>
<path d="M608.838 215.733C608.838 217.203 607.645 218.396 606.175 218.396C604.705 218.396 603.512 217.203 603.512 215.733C603.512 214.263 604.705 213.069 606.175 213.069C607.645 213.069 608.838 214.263 608.838 215.733Z" fill="black"/>
<path d="M324.931 215.733C324.931 217.203 323.738 218.396 322.267 218.396C320.797 218.396 319.604 217.203 319.604 215.733C319.604 214.263 320.797 213.069 322.267 213.069C323.738 213.069 324.931 214.263 324.931 215.733Z" fill="black"/>
<path d="M644.35 215.733C644.35 217.203 643.157 218.396 641.686 218.396C640.216 218.396 639.023 217.203 639.023 215.733C639.023 214.263 640.216 213.069 641.686 213.069C643.157 213.069 644.35 214.263 644.35 215.733Z" fill="black"/>
<path d="M289.419 251.244C289.419 252.714 288.226 253.908 286.756 253.908C285.286 253.908 284.092 252.714 284.092 251.244C284.092 249.774 285.286 248.581 286.756 248.581C288.226 248.581 289.419 249.774 289.419 251.244Z" fill="black"/>
<path d="M608.838 251.244C608.838 252.714 607.645 253.908 606.175 253.908C604.705 253.908 603.512 252.714 603.512 251.244C603.512 249.774 604.705 248.581 606.175 248.581C607.645 248.581 608.838 249.774 608.838 251.244Z" fill="black"/>
<path d="M324.931 251.244C324.931 252.714 323.738 253.908 322.267 253.908C320.797 253.908 319.604 252.714 319.604 251.244C319.604 249.774 320.797 248.581 322.267 248.581C323.738 248.581 324.931 249.774 324.931 251.244Z" fill="black"/>
<path d="M644.35 251.244C644.35 252.714 643.157 253.908 641.686 253.908C640.216 253.908 639.023 252.714 639.023 251.244C639.023 249.774 640.216 248.581 641.686 248.581C643.157 248.581 644.35 249.774 644.35 251.244Z" fill="black"/>
<path d="M360.442 215.733C360.442 217.203 359.249 218.396 357.779 218.396C356.309 218.396 355.115 217.203 355.115 215.733C355.115 214.263 356.309 213.069 357.779 213.069C359.249 213.069 360.442 214.263 360.442 215.733Z" fill="black"/>
<path d="M679.861 215.733C679.861 217.203 678.668 218.396 677.198 218.396C675.728 218.396 674.535 217.203 674.535 215.733C674.535 214.263 675.728 213.069 677.198 213.069C678.668 213.069 679.861 214.263 679.861 215.733Z" fill="black"/>
<path d="M395.954 215.733C395.954 217.203 394.761 218.396 393.29 218.396C391.82 218.396 390.627 217.203 390.627 215.733C390.627 214.263 391.82 213.069 393.29 213.069C394.761 213.069 395.954 214.263 395.954 215.733Z" fill="black"/>
<path d="M715.373 215.733C715.373 217.203 714.18 218.396 712.71 218.396C711.239 218.396 710.046 217.203 710.046 215.733C710.046 214.263 711.239 213.069 712.71 213.069C714.18 213.069 715.373 214.263 715.373 215.733Z" fill="black"/>
<path d="M360.442 251.244C360.442 252.714 359.249 253.908 357.779 253.908C356.309 253.908 355.115 252.714 355.115 251.244C355.115 249.774 356.309 248.581 357.779 248.581C359.249 248.581 360.442 249.774 360.442 251.244Z" fill="black"/>
<path d="M679.861 251.244C679.861 252.714 678.668 253.908 677.198 253.908C675.728 253.908 674.535 252.714 674.535 251.244C674.535 249.774 675.728 248.581 677.198 248.581C678.668 248.581 679.861 249.774 679.861 251.244Z" fill="black"/>
<path d="M395.954 251.244C395.954 252.714 394.761 253.908 393.29 253.908C391.82 253.908 390.627 252.714 390.627 251.244C390.627 249.774 391.82 248.581 393.29 248.581C394.761 248.581 395.954 249.774 395.954 251.244Z" fill="black"/>
<path d="M715.373 251.244C715.373 252.714 714.18 253.908 712.71 253.908C711.239 253.908 710.046 252.714 710.046 251.244C710.046 249.774 711.239 248.581 712.71 248.581C714.18 248.581 715.373 249.774 715.373 251.244Z" fill="black"/>
<path d="M431.465 215.733C431.465 217.203 430.272 218.396 428.802 218.396C427.332 218.396 426.139 217.203 426.139 215.733C426.139 214.263 427.332 213.069 428.802 213.069C430.272 213.069 431.465 214.263 431.465 215.733Z" fill="black"/>
<path d="M750.884 215.733C750.884 217.203 749.691 218.396 748.221 218.396C746.751 218.396 745.558 217.203 745.558 215.733C745.558 214.263 746.751 213.069 748.221 213.069C749.691 213.069 750.884 214.263 750.884 215.733Z" fill="black"/>
<path d="M466.977 215.733C466.977 217.203 465.784 218.396 464.314 218.396C462.843 218.396 461.65 217.203 461.65 215.733C461.65 214.263 462.843 213.069 464.314 213.069C465.784 213.069 466.977 214.263 466.977 215.733Z" fill="black"/>
<path d="M786.396 215.733C786.396 217.203 785.203 218.396 783.733 218.396C782.263 218.396 781.069 217.203 781.069 215.733C781.069 214.263 782.263 213.069 783.733 213.069C785.203 213.069 786.396 214.263 786.396 215.733Z" fill="black"/>
<path d="M431.465 251.244C431.465 252.714 430.272 253.908 428.802 253.908C427.332 253.908 426.139 252.714 426.139 251.244C426.139 249.774 427.332 248.581 428.802 248.581C430.272 248.581 431.465 249.774 431.465 251.244Z" fill="black"/>
<path d="M750.884 251.244C750.884 252.714 749.691 253.908 748.221 253.908C746.751 253.908 745.558 252.714 745.558 251.244C745.558 249.774 746.751 248.581 748.221 248.581C749.691 248.581 750.884 249.774 750.884 251.244Z" fill="black"/>
<path d="M466.977 251.244C466.977 252.714 465.784 253.908 464.314 253.908C462.843 253.908 461.65 252.714 461.65 251.244C461.65 249.774 462.843 248.581 464.314 248.581C465.784 248.581 466.977 249.774 466.977 251.244Z" fill="black"/>
<path d="M786.396 251.244C786.396 252.714 785.203 253.908 783.733 253.908C782.263 253.908 781.069 252.714 781.069 251.244C781.069 249.774 782.263 248.581 783.733 248.581C785.203 248.581 786.396 249.774 786.396 251.244Z" fill="black"/>
<path d="M502.488 215.733C502.488 217.203 501.295 218.396 499.825 218.396C498.355 218.396 497.162 217.203 497.162 215.733C497.162 214.263 498.355 213.069 499.825 213.069C501.295 213.069 502.488 214.263 502.488 215.733Z" fill="black"/>
<path d="M821.908 215.733C821.908 217.203 820.714 218.396 819.244 218.396C817.774 218.396 816.581 217.203 816.581 215.733C816.581 214.263 817.774 213.069 819.244 213.069C820.714 213.069 821.908 214.263 821.908 215.733Z" fill="black"/>
<path d="M538 215.733C538 217.203 536.807 218.396 535.337 218.396C533.866 218.396 532.673 217.203 532.673 215.733C532.673 214.263 533.866 213.069 535.337 213.069C536.807 213.069 538 214.263 538 215.733Z" fill="black"/>
<path d="M502.488 251.244C502.488 252.714 501.295 253.908 499.825 253.908C498.355 253.908 497.162 252.714 497.162 251.244C497.162 249.774 498.355 248.581 499.825 248.581C501.295 248.581 502.488 249.774 502.488 251.244Z" fill="black"/>
<path d="M821.908 251.244C821.908 252.714 820.714 253.908 819.244 253.908C817.774 253.908 816.581 252.714 816.581 251.244C816.581 249.774 817.774 248.581 819.244 248.581C820.714 248.581 821.908 249.774 821.908 251.244Z" fill="black"/>
<path d="M538 251.244C538 252.714 536.807 253.908 535.337 253.908C533.866 253.908 532.673 252.714 532.673 251.244C532.673 249.774 533.866 248.581 535.337 248.581C536.807 248.581 538 249.774 538 251.244Z" fill="black"/>
<path d="M5.32673 286.756C5.32673 288.226 4.13431 289.419 2.66337 289.419C1.19243 289.419 0 288.226 0 286.756C0 285.286 1.19243 284.092 2.66337 284.092C4.13431 284.092 5.32673 285.286 5.32673 286.756Z" fill="black"/>
<path d="M40.8383 286.756C40.8383 288.226 39.6458 289.419 38.1749 289.419C36.704 289.419 35.5115 288.226 35.5115 286.756C35.5115 285.286 36.704 284.092 38.1749 284.092C39.6458 284.092 40.8383 285.286 40.8383 286.756Z" fill="black"/>
<path d="M5.32673 322.267C5.32673 323.738 4.13431 324.931 2.66337 324.931C1.19243 324.931 0 323.738 0 322.267C0 320.797 1.19243 319.604 2.66337 319.604C4.13431 319.604 5.32673 320.797 5.32673 322.267Z" fill="black"/>
<path d="M40.8383 322.267C40.8383 323.738 39.6458 324.931 38.1749 324.931C36.704 324.931 35.5115 323.738 35.5115 322.267C35.5115 320.797 36.704 319.604 38.1749 319.604C39.6458 319.604 40.8383 320.797 40.8383 322.267Z" fill="black"/>
<path d="M76.3498 286.756C76.3498 288.226 75.1574 289.419 73.6865 289.419C72.2156 289.419 71.0231 288.226 71.0231 286.756C71.0231 285.286 72.2156 284.092 73.6865 284.092C75.1574 284.092 76.3498 285.286 76.3498 286.756Z" fill="black"/>
<path d="M111.861 286.756C111.861 288.226 110.669 289.419 109.198 289.419C107.727 289.419 106.535 288.226 106.535 286.756C106.535 285.286 107.727 284.092 109.198 284.092C110.669 284.092 111.861 285.286 111.861 286.756Z" fill="black"/>
<path d="M76.3498 322.267C76.3498 323.738 75.1574 324.931 73.6865 324.931C72.2156 324.931 71.0231 323.738 71.0231 322.267C71.0231 320.797 72.2156 319.604 73.6865 319.604C75.1574 319.604 76.3498 320.797 76.3498 322.267Z" fill="black"/>
<path d="M111.861 322.267C111.861 323.738 110.669 324.931 109.198 324.931C107.727 324.931 106.535 323.738 106.535 322.267C106.535 320.797 107.727 319.604 109.198 319.604C110.669 319.604 111.861 320.797 111.861 322.267Z" fill="black"/>
<path d="M147.373 286.756C147.373 288.226 146.18 289.419 144.71 289.419C143.239 289.419 142.046 288.226 142.046 286.756C142.046 285.286 143.239 284.092 144.71 284.092C146.18 284.092 147.373 285.286 147.373 286.756Z" fill="black"/>
<path d="M182.884 286.756C182.884 288.226 181.691 289.419 180.221 289.419C178.751 289.419 177.558 288.226 177.558 286.756C177.558 285.286 178.751 284.092 180.221 284.092C181.691 284.092 182.884 285.286 182.884 286.756Z" fill="black"/>
<path d="M147.373 322.267C147.373 323.738 146.18 324.931 144.71 324.931C143.239 324.931 142.046 323.738 142.046 322.267C142.046 320.797 143.239 319.604 144.71 319.604C146.18 319.604 147.373 320.797 147.373 322.267Z" fill="black"/>
<path d="M182.884 322.267C182.884 323.738 181.691 324.931 180.221 324.931C178.751 324.931 177.558 323.738 177.558 322.267C177.558 320.797 178.751 319.604 180.221 319.604C181.691 319.604 182.884 320.797 182.884 322.267Z" fill="black"/>
<path d="M218.396 286.756C218.396 288.226 217.203 289.419 215.733 289.419C214.263 289.419 213.069 288.226 213.069 286.756C213.069 285.286 214.263 284.092 215.733 284.092C217.203 284.092 218.396 285.286 218.396 286.756Z" fill="black"/>
<path d="M253.908 286.756C253.908 288.226 252.714 289.419 251.244 289.419C249.774 289.419 248.581 288.226 248.581 286.756C248.581 285.286 249.774 284.092 251.244 284.092C252.714 284.092 253.908 285.286 253.908 286.756Z" fill="black"/>
<path d="M573.327 286.756C573.327 288.226 572.134 289.419 570.663 289.419C569.193 289.419 568 288.226 568 286.756C568 285.286 569.193 284.092 570.663 284.092C572.134 284.092 573.327 285.286 573.327 286.756Z" fill="black"/>
<path d="M218.396 322.267C218.396 323.738 217.203 324.931 215.733 324.931C214.263 324.931 213.069 323.738 213.069 322.267C213.069 320.797 214.263 319.604 215.733 319.604C217.203 319.604 218.396 320.797 218.396 322.267Z" fill="black"/>
<path d="M253.908 322.267C253.908 323.738 252.714 324.931 251.244 324.931C249.774 324.931 248.581 323.738 248.581 322.267C248.581 320.797 249.774 319.604 251.244 319.604C252.714 319.604 253.908 320.797 253.908 322.267Z" fill="black"/>
<path d="M573.327 322.267C573.327 323.738 572.134 324.931 570.663 324.931C569.193 324.931 568 323.738 568 322.267C568 320.797 569.193 319.604 570.663 319.604C572.134 319.604 573.327 320.797 573.327 322.267Z" fill="black"/>
<path d="M289.419 286.756C289.419 288.226 288.226 289.419 286.756 289.419C285.286 289.419 284.092 288.226 284.092 286.756C284.092 285.286 285.286 284.092 286.756 284.092C288.226 284.092 289.419 285.286 289.419 286.756Z" fill="black"/>
<path d="M608.838 286.756C608.838 288.226 607.645 289.419 606.175 289.419C604.705 289.419 603.512 288.226 603.512 286.756C603.512 285.286 604.705 284.092 606.175 284.092C607.645 284.092 608.838 285.286 608.838 286.756Z" fill="black"/>
<path d="M324.931 286.756C324.931 288.226 323.738 289.419 322.267 289.419C320.797 289.419 319.604 288.226 319.604 286.756C319.604 285.286 320.797 284.092 322.267 284.092C323.738 284.092 324.931 285.286 324.931 286.756Z" fill="black"/>
<path d="M644.35 286.756C644.35 288.226 643.157 289.419 641.686 289.419C640.216 289.419 639.023 288.226 639.023 286.756C639.023 285.286 640.216 284.092 641.686 284.092C643.157 284.092 644.35 285.286 644.35 286.756Z" fill="black"/>
<path d="M289.419 322.267C289.419 323.738 288.226 324.931 286.756 324.931C285.286 324.931 284.092 323.738 284.092 322.267C284.092 320.797 285.286 319.604 286.756 319.604C288.226 319.604 289.419 320.797 289.419 322.267Z" fill="black"/>
<path d="M608.838 322.267C608.838 323.738 607.645 324.931 606.175 324.931C604.705 324.931 603.512 323.738 603.512 322.267C603.512 320.797 604.705 319.604 606.175 319.604C607.645 319.604 608.838 320.797 608.838 322.267Z" fill="black"/>
<path d="M324.931 322.267C324.931 323.738 323.738 324.931 322.267 324.931C320.797 324.931 319.604 323.738 319.604 322.267C319.604 320.797 320.797 319.604 322.267 319.604C323.738 319.604 324.931 320.797 324.931 322.267Z" fill="black"/>
<path d="M644.35 322.267C644.35 323.738 643.157 324.931 641.686 324.931C640.216 324.931 639.023 323.738 639.023 322.267C639.023 320.797 640.216 319.604 641.686 319.604C643.157 319.604 644.35 320.797 644.35 322.267Z" fill="black"/>
<path d="M360.442 286.756C360.442 288.226 359.249 289.419 357.779 289.419C356.309 289.419 355.115 288.226 355.115 286.756C355.115 285.286 356.309 284.092 357.779 284.092C359.249 284.092 360.442 285.286 360.442 286.756Z" fill="black"/>
<path d="M679.861 286.756C679.861 288.226 678.668 289.419 677.198 289.419C675.728 289.419 674.535 288.226 674.535 286.756C674.535 285.286 675.728 284.092 677.198 284.092C678.668 284.092 679.861 285.286 679.861 286.756Z" fill="black"/>
<path d="M395.954 286.756C395.954 288.226 394.761 289.419 393.29 289.419C391.82 289.419 390.627 288.226 390.627 286.756C390.627 285.286 391.82 284.092 393.29 284.092C394.761 284.092 395.954 285.286 395.954 286.756Z" fill="black"/>
<path d="M715.373 286.756C715.373 288.226 714.18 289.419 712.71 289.419C711.239 289.419 710.046 288.226 710.046 286.756C710.046 285.286 711.239 284.092 712.71 284.092C714.18 284.092 715.373 285.286 715.373 286.756Z" fill="black"/>
<path d="M360.442 322.267C360.442 323.738 359.249 324.931 357.779 324.931C356.309 324.931 355.115 323.738 355.115 322.267C355.115 320.797 356.309 319.604 357.779 319.604C359.249 319.604 360.442 320.797 360.442 322.267Z" fill="black"/>
<path d="M679.861 322.267C679.861 323.738 678.668 324.931 677.198 324.931C675.728 324.931 674.535 323.738 674.535 322.267C674.535 320.797 675.728 319.604 677.198 319.604C678.668 319.604 679.861 320.797 679.861 322.267Z" fill="black"/>
<path d="M395.954 322.267C395.954 323.738 394.761 324.931 393.29 324.931C391.82 324.931 390.627 323.738 390.627 322.267C390.627 320.797 391.82 319.604 393.29 319.604C394.761 319.604 395.954 320.797 395.954 322.267Z" fill="black"/>
<path d="M715.373 322.267C715.373 323.738 714.18 324.931 712.71 324.931C711.239 324.931 710.046 323.738 710.046 322.267C710.046 320.797 711.239 319.604 712.71 319.604C714.18 319.604 715.373 320.797 715.373 322.267Z" fill="black"/>
<path d="M431.465 286.756C431.465 288.226 430.272 289.419 428.802 289.419C427.332 289.419 426.139 288.226 426.139 286.756C426.139 285.286 427.332 284.092 428.802 284.092C430.272 284.092 431.465 285.286 431.465 286.756Z" fill="black"/>
<path d="M750.884 286.756C750.884 288.226 749.691 289.419 748.221 289.419C746.751 289.419 745.558 288.226 745.558 286.756C745.558 285.286 746.751 284.092 748.221 284.092C749.691 284.092 750.884 285.286 750.884 286.756Z" fill="black"/>
<path d="M466.977 286.756C466.977 288.226 465.784 289.419 464.314 289.419C462.843 289.419 461.65 288.226 461.65 286.756C461.65 285.286 462.843 284.092 464.314 284.092C465.784 284.092 466.977 285.286 466.977 286.756Z" fill="black"/>
<path d="M786.396 286.756C786.396 288.226 785.203 289.419 783.733 289.419C782.263 289.419 781.069 288.226 781.069 286.756C781.069 285.286 782.263 284.092 783.733 284.092C785.203 284.092 786.396 285.286 786.396 286.756Z" fill="black"/>
<path d="M431.465 322.267C431.465 323.738 430.272 324.931 428.802 324.931C427.332 324.931 426.139 323.738 426.139 322.267C426.139 320.797 427.332 319.604 428.802 319.604C430.272 319.604 431.465 320.797 431.465 322.267Z" fill="black"/>
<path d="M750.884 322.267C750.884 323.738 749.691 324.931 748.221 324.931C746.751 324.931 745.558 323.738 745.558 322.267C745.558 320.797 746.751 319.604 748.221 319.604C749.691 319.604 750.884 320.797 750.884 322.267Z" fill="black"/>
<path d="M466.977 322.267C466.977 323.738 465.784 324.931 464.314 324.931C462.843 324.931 461.65 323.738 461.65 322.267C461.65 320.797 462.843 319.604 464.314 319.604C465.784 319.604 466.977 320.797 466.977 322.267Z" fill="black"/>
<path d="M786.396 322.267C786.396 323.738 785.203 324.931 783.733 324.931C782.263 324.931 781.069 323.738 781.069 322.267C781.069 320.797 782.263 319.604 783.733 319.604C785.203 319.604 786.396 320.797 786.396 322.267Z" fill="black"/>
<path d="M502.488 286.756C502.488 288.226 501.295 289.419 499.825 289.419C498.355 289.419 497.162 288.226 497.162 286.756C497.162 285.286 498.355 284.092 499.825 284.092C501.295 284.092 502.488 285.286 502.488 286.756Z" fill="black"/>
<path d="M821.908 286.756C821.908 288.226 820.714 289.419 819.244 289.419C817.774 289.419 816.581 288.226 816.581 286.756C816.581 285.286 817.774 284.092 819.244 284.092C820.714 284.092 821.908 285.286 821.908 286.756Z" fill="black"/>
<path d="M538 286.756C538 288.226 536.807 289.419 535.337 289.419C533.866 289.419 532.673 288.226 532.673 286.756C532.673 285.286 533.866 284.092 535.337 284.092C536.807 284.092 538 285.286 538 286.756Z" fill="black"/>
<path d="M502.488 322.267C502.488 323.738 501.295 324.931 499.825 324.931C498.355 324.931 497.162 323.738 497.162 322.267C497.162 320.797 498.355 319.604 499.825 319.604C501.295 319.604 502.488 320.797 502.488 322.267Z" fill="black"/>
<path d="M821.908 322.267C821.908 323.738 820.714 324.931 819.244 324.931C817.774 324.931 816.581 323.738 816.581 322.267C816.581 320.797 817.774 319.604 819.244 319.604C820.714 319.604 821.908 320.797 821.908 322.267Z" fill="black"/>
<path d="M538 322.267C538 323.738 536.807 324.931 535.337 324.931C533.866 324.931 532.673 323.738 532.673 322.267C532.673 320.797 533.866 319.604 535.337 319.604C536.807 319.604 538 320.797 538 322.267Z" fill="black"/>
</g>
</svg>
