<svg width="36" height="36" viewBox="0 0 36 36" fill="none" xmlns="http://www.w3.org/2000/svg">
<path fill-rule="evenodd" clip-rule="evenodd" d="M7 0C3.134 0 0 3.13403 0 7V29C0 32.866 3.134 36 7 36H29C32.866 36 36 32.866 36 29V7C36 3.13403 32.866 0 29 0H7ZM27.172 11.084C28.168 10.9651 29.117 10.7009 30 10.3091C29.34 11.2959 28.505 12.1631 27.543 12.8579C27.855 19.783 22.69 27.5039 13.548 27.5039C10.768 27.5039 8.17899 26.689 6 25.292C8.612 25.6001 11.22 24.875 13.29 23.252C11.134 23.2119 9.31601 21.7891 8.69 19.833C9.46201 19.981 10.221 19.937 10.914 19.749C8.54599 19.2739 6.91101 17.1399 6.965 14.8589C7.62799 15.228 8.388 15.449 9.194 15.4751C7.00201 14.009 6.38101 11.114 7.67099 8.90088C10.1 11.8799 13.728 13.8401 17.819 14.0449C17.101 10.9661 19.437 8 22.616 8C24.032 8 25.313 8.5979 26.21 9.55493C27.332 9.33398 28.386 8.92407 29.337 8.36011C28.97 9.51001 28.189 10.4751 27.172 11.084Z" fill="#7A889E"/>
</svg>
